<?xml version="1.0" standalone="no"?><!DOCTYPE svg PUBLIC "-//W3C//DTD SVG 1.1//EN" "http://www.w3.org/Graphics/SVG/1.1/DTD/svg11.dtd"><svg t="1596276858666" class="icon" viewBox="0 0 1024 1024" version="1.1" xmlns="http://www.w3.org/2000/svg" p-id="4043" xmlns:xlink="http://www.w3.org/1999/xlink" width="200" height="200"><defs><style type="text/css"></style></defs><path d="M592 958.4V752c0-44.8 36.8-80 80-80h216c3.2 0 8 0 11.2 1.6V198.4L700.8 0H166.4c-49.6 0-89.6 40-89.6 89.6v844.8c0 49.6 40 89.6 89.6 89.6h459.2c-19.2-14.4-33.6-38.4-33.6-65.6zM702.4 51.2L848 196.8H702.4V51.2zM369.6 542.4c-6.4 9.6-14.4 16-25.6 20.8-11.2 4.8-24 6.4-40 6.4-24 0-41.6-4.8-52.8-16S232 528 228.8 507.2l36.8-3.2c1.6 12.8 6.4 20.8 12.8 27.2s16 8 27.2 8 20.8-3.2 27.2-8 9.6-11.2 9.6-17.6c0-4.8-1.6-8-3.2-11.2-3.2-3.2-6.4-6.4-12.8-8-4.8-1.6-14.4-4.8-30.4-8-19.2-4.8-33.6-11.2-41.6-17.6-11.2-9.6-17.6-22.4-17.6-36.8 0-9.6 3.2-17.6 8-25.6s12.8-14.4 22.4-19.2c9.6-4.8 22.4-6.4 36.8-6.4 22.4 0 40 4.8 52.8 14.4 11.2 9.6 17.6 24 17.6 40l-38.4 1.6c-1.6-9.6-4.8-16-9.6-20.8s-12.8-6.4-24-6.4-19.2 1.6-25.6 6.4c-3.2 3.2-6.4 6.4-6.4 11.2 0 4.8 1.6 8 4.8 11.2 4.8 3.2 16 8 33.6 12.8s32 8 40 12.8 16 11.2 20.8 19.2 8 17.6 8 28.8c1.6 11.2-1.6 20.8-8 30.4z m171.2 0c-6.4 9.6-14.4 16-25.6 20.8-11.2 4.8-24 6.4-40 6.4-24 0-41.6-4.8-52.8-16S403.2 528 400 507.2l36.8-3.2c1.6 12.8 6.4 20.8 12.8 27.2s16 8 27.2 8 20.8-3.2 27.2-8c6.4-4.8 9.6-11.2 9.6-17.6 0-4.8-1.6-8-3.2-11.2s-8-6.4-14.4-8c-4.8-1.6-14.4-4.8-30.4-8-19.2-4.8-33.6-11.2-41.6-17.6-11.2-9.6-17.6-22.4-17.6-36.8 0-9.6 3.2-17.6 8-25.6s12.8-14.4 22.4-19.2 22.4-6.4 36.8-6.4c22.4 0 40 4.8 52.8 14.4 11.2 9.6 17.6 24 17.6 40l-36.8 1.6c-1.6-9.6-4.8-16-9.6-20.8-4.8-4.8-12.8-6.4-24-6.4s-19.2 1.6-25.6 6.4c-3.2 3.2-6.4 6.4-6.4 11.2 0 4.8 1.6 8 4.8 11.2 4.8 3.2 16 8 33.6 12.8 17.6 4.8 32 8 40 12.8 8 4.8 16 11.2 20.8 19.2s8 17.6 8 28.8c1.6 11.2-1.6 20.8-8 30.4z m40-158.4h36.8v72h72v-72h36.8v184h-36.8v-80h-72v80h-36.8V384z" p-id="4044" fill="#1296db"></path><path d="M889.6 705.6H692.8c-32 0-57.6 25.6-57.6 56v200c0 30.4 25.6 56 57.6 56H888c32 0 57.6-25.6 57.6-56v-200c1.6-30.4-24-56-56-56z m3.2 112c-6.4 136-86.4 161.6-96 164.8H792c-1.6 0-3.2 0-4.8-1.6-16-4.8-97.6-36.8-97.6-164.8 0-6.4 4.8-12.8 11.2-14.4 46.4-12.8 70.4-36.8 80-48 3.2-3.2 8-4.8 12.8-4.8s8 1.6 11.2 4.8c9.6 12.8 35.2 35.2 76.8 46.4 9.6 4.8 11.2 11.2 11.2 17.6z" p-id="4045" fill="#1296db"></path><path d="M809.6 814.4h-24l-24 54.4h24l-16 46.4 51.2-65.6h-27.2z" p-id="4046" fill="#1296db"></path></svg>