<?xml version="1.0" encoding="UTF-8"?>
<svg width="32px" height="32px" viewBox="0 0 32 32" version="1.1" xmlns="http://www.w3.org/2000/svg" xmlns:xlink="http://www.w3.org/1999/xlink">
    <title>icon/AI测算/32</title>
    <g id="icon/AI测算/32" stroke="none" stroke-width="1" fill="none" fill-rule="evenodd">
        <g id="icon/AI测算/16" fill="#6653C9">
            <path d="M13,0 C15.6509668,0 17.8200773,2.06307187 17.9893646,4.67124862 L18,5 L18,25 C18,27.7614237 15.7614237,30 13,30 C10.9433506,30 9.17672229,28.7582725 8.40892554,26.9836282 C8.26743819,26.9949074 8.12445525,27 7.9808926,27 C4.67687791,27 2,24.3128532 2,21 C2,20.1865867 2.16257492,19.3991701 2.46552693,18.6757817 C1.00379039,18.0617722 2.08411066e-12,16.6351812 2.08411066e-12,15 C2.08411066e-12,13.4177464 0.937682848,12.0397714 2.30917894,11.3924701 C2.10491406,10.8158261 2,10.212809 2,9.59751795 C2,6.46579558 4.69252497,3.86026385 8.37401704,3.09852511 C9.12196686,1.28056201 10.9114378,0 13,0 Z M13,2 C11.3431458,2 10,3.34314575 10,5 C10,6.55939223 11.1897762,7.84089736 12.71108,7.98626684 L13,8 L13,10 C10.3244271,10 8.13969712,7.89845183 8.00643952,5.25598499 C5.60111727,5.99645618 4,7.71930765 4,9.59751795 C4,10.0798752 4.10264251,10.5529505 4.30342781,11.0063229 L4.06981762,11 C4.38482934,11 4.69567474,11.0353588 4.99761438,11.1046212 L5.29640989,11.1851309 L4.70359011,13.0952525 C4.50112849,13.0324171 4.28834529,13 4.06981762,13 C3.98612641,13 3.90326295,13.0047535 3.8214508,13.0141621 C2.7837214,13.133503 2,13.9890325 2,15 C2,15.9251428 2.65756829,16.7263011 3.57580734,16.9429071 C3.64994289,16.8603807 3.72606393,16.7817351 3.80444467,16.7050612 L4.09986459,16.4346516 L5.40064995,17.9538479 C4.5175572,18.7099807 4,19.811475 4,21 C4,23.2099943 5.78316524,25 7.9808926,25 L8,24.999 L8.00461951,24.7831104 C8.11818189,22.1223067 10.3112453,20 13,20 C13.7731576,20 13.542837,22 13,22 C11.3431458,22 10,23.3431458 10,25 C10,26.6568542 11.3431458,28 13,28 C14.5593922,28 15.8408974,26.8102238 15.9862668,25.28892 L16,25 L16,5 C16,3.34314575 14.6568542,2 13,2 Z M27,22 C28.6568542,22 30,23.3431458 30,25 C30,26.6568542 28.6568542,28 27,28 C25.6941178,28 24.5831148,27.1656226 24.1710242,26.0009007 L20,26 L20,24 L24.1706743,24.0000889 C24.5824856,22.8348501 25.6937479,22 27,22 Z M27,24 C26.4477153,24 26,24.4477153 26,25 C26,25.5522847 26.4477153,26 27,26 C27.5522847,26 28,25.5522847 28,25 C28,24.4477153 27.5522847,24 27,24 Z M29,12 C30.6568542,12 32,13.3431458 32,15 C32,16.6568542 30.6568542,18 29,18 C27.3431458,18 26,16.6568542 26,15 C26,13.3431458 27.3431458,12 29,12 Z M14,12 C14,14.6509668 11.9369281,16.8200773 9.32875138,16.9893646 L9,17 L9,15 C10.5593922,15 11.8408974,13.8102238 11.9862668,12.28892 L12,12 L14,12 Z M29,14 C28.4477153,14 28,14.4477153 28,15 C28,15.5522847 28.4477153,16 29,16 C29.5522847,16 30,15.5522847 30,15 C30,14.4477153 29.5522847,14 29,14 Z M26,14 L26,16 L20,16 L20,14 L26,14 Z M27,2 C28.6568542,2 30,3.34314575 30,5 C30,6.65685425 28.6568542,8 27,8 C25.6941178,8 24.5831148,7.16562257 24.1710242,6.00090072 L20,6 L20,4 L24.1706743,4.00008893 C24.5824856,2.8348501 25.6937479,2 27,2 Z M27,4 C26.4477153,4 26,4.44771525 26,5 C26,5.55228475 26.4477153,6 27,6 C27.5522847,6 28,5.55228475 28,5 C28,4.44771525 27.5522847,4 27,4 Z" id="形状结合"></path>
        </g>
    </g>
</svg>