<?xml version="1.0" encoding="UTF-8"?>
<svg width="16px" height="16px" viewBox="0 0 16 16" version="1.1" xmlns="http://www.w3.org/2000/svg" xmlns:xlink="http://www.w3.org/1999/xlink">
    <title>icon/AI测算/16</title>
    <g id="icon/AI测算/16" stroke="none" stroke-width="1" fill="none" fill-rule="evenodd">
        <path d="M6.5,0 C7.8254834,0 8.91003867,1.03153594 8.99468232,2.33562431 L9,2.5 L9,12.5 C9,13.8807119 7.88071187,15 6.5,15 C5.47166135,15 4.58833714,14.3791194 4.20444712,13.491778 C4.13431657,13.4974324 4.06252758,13.5 3.9904463,13.5 C2.33843896,13.5 1,12.1564266 1,10.5 C1,10.0932478 1.08130566,9.6994969 1.23281433,9.33776939 C0.501210512,9.02991263 1.04205533e-12,8.31703275 1.04205533e-12,7.5 C1.04205533e-12,6.70916504 0.468495603,6.02039399 1.1538307,5.69659335 C1.05253742,5.40837492 1,5.10664016 1,4.79875897 C1,3.23307612 2.34595586,1.93042866 4.18637964,1.54939272 C4.56031048,0.640762677 5.45532617,0 6.5,0 Z M6.5,1 C5.67157288,1 5,1.67157288 5,2.5 C5,3.27969612 5.59488808,3.92044868 6.35553999,3.99313342 L6.5,4 L6.5,5 C5.16205652,5 4.0695921,3.94897919 4.00319634,2.62752718 C2.80106152,2.99768707 2,3.85935891 2,4.79875897 C2,5.04054975 2.05158211,5.27767596 2.15247929,5.50488737 L2.03490881,5.5 C2.19241467,5.5 2.34783737,5.51767942 2.49880719,5.55231061 L2.64820495,5.59256543 L2.35179505,6.54762625 C2.25056424,6.51620856 2.14417265,6.5 2.03490881,6.5 C1.9930632,6.5 1.95163147,6.50237676 1.9107254,6.50708104 C1.3918607,6.56675149 1,6.99451627 1,7.5 C1,7.96299085 1.32938066,8.36387693 1.78915289,8.47174744 L1.90222233,8.35253058 L1.90222233,8.35253058 L2.04993229,8.2173258 L2.70032497,8.97692395 C2.2587786,9.35499034 2,9.90573751 2,10.5 C2,11.6049971 2.89158262,12.5 3.9904463,12.5 L4,12.5 L4,12.5 C4,11.1192881 5.11928813,10 6.5,10 C6.88657881,10 6.77141849,11 6.5,11 C5.67157288,11 5,11.6715729 5,12.5 C5,13.3284271 5.67157288,14 6.5,14 C7.27969612,14 7.92044868,13.4051119 7.99313342,12.64446 L8,12.5 L8,2.5 C8,1.67157288 7.32842712,1 6.5,1 Z M13.5,11 C14.3284271,11 15,11.6715729 15,12.5 C15,13.3284271 14.3284271,14 13.5,14 C12.8471533,14 12.2917181,13.5829319 12.0856015,13.000703 L10,13 L10,12 L12.0852495,12.0002925 C12.2910851,11.4175435 12.8467813,11 13.5,11 Z M13.5,12 C13.2238576,12 13,12.2238576 13,12.5 C13,12.7761424 13.2238576,13 13.5,13 C13.7761424,13 14,12.7761424 14,12.5 C14,12.2238576 13.7761424,12 13.5,12 Z M14.5,6 C15.3284271,6 16,6.67157288 16,7.5 C16,8.32842712 15.3284271,9 14.5,9 C13.6715729,9 13,8.32842712 13,7.5 C13,6.67157288 13.6715729,6 14.5,6 Z M7,6 C7,7.3254834 5.96846406,8.41003867 4.66437569,8.49468232 L4.5,8.5 L4.5,7.5 C5.27969612,7.5 5.92044868,6.90511192 5.99313342,6.14446001 L6,6 L7,6 Z M14.5,7 C14.2238576,7 14,7.22385763 14,7.5 C14,7.77614237 14.2238576,8 14.5,8 C14.7761424,8 15,7.77614237 15,7.5 C15,7.22385763 14.7761424,7 14.5,7 Z M13,7 L13,8 L10,8 L10,7 L13,7 Z M13.5,1 C14.3284271,1 15,1.67157288 15,2.5 C15,3.32842712 14.3284271,4 13.5,4 C12.8471533,4 12.2917181,3.58293192 12.0856015,3.00070296 L10,3 L10,2 L12.0852495,2.00029246 C12.2910851,1.41754351 12.8467813,1 13.5,1 Z M13.5,2 C13.2238576,2 13,2.22385763 13,2.5 C13,2.77614237 13.2238576,3 13.5,3 C13.7761424,3 14,2.77614237 14,2.5 C14,2.22385763 13.7761424,2 13.5,2 Z" id="形状结合" fill="#6653C9"></path>
    </g>
</svg>