<?xml version="1.0" encoding="UTF-8"?>
<svg width="16px" height="16px" viewBox="0 0 16 16" version="1.1" xmlns="http://www.w3.org/2000/svg" xmlns:xlink="http://www.w3.org/1999/xlink">
    <title>01-icon_line/02-系统通用类/导航_应用/application_16</title>
    <g id="01-icon_line/02-系统通用类/导航_应用/application_16" stroke="none" stroke-width="1" fill="none" fill-rule="evenodd">
        <g id="软件">
            <rect id="矩形" fill="#000000" fill-rule="nonzero" opacity="0" x="0" y="0" width="16" height="16"></rect>
            <path d="M8.001,2 L8,8 L2,8 L2,2 L8.001,2 Z M15,5 C15,6.65685425 13.6568542,8 12,8 C10.3431458,8 9,6.65685425 9,5 C9,3.34314575 10.3431458,2 12,2 C13.6568542,2 15,3.34314575 15,5 Z M7,3 L2.999,3 L2.999,7 L6.999,7 L7,3 Z M12,3 C10.8954305,3 10,3.8954305 10,5 C10,6.1045695 10.8954305,7 12,7 C13.1045695,7 14,6.1045695 14,5 C14,3.8954305 13.1045695,3 12,3 Z" id="形状结合备份" fill="#262629"></path>
            <path d="M8.001,9 L8,15 L2,15 L2,9 L8.001,9 Z M15,9 L15,15 L9,15 L9,9 L15,9 Z M7,10 L2.999,10 L2.999,14 L6.999,14 L7,10 Z M14,10 L10,10 L10,14 L14,14 L14,10 Z" id="形状结合备份-2" fill="#262629"></path>
        </g>
    </g>
</svg>