<?xml version="1.0" standalone="no"?><!DOCTYPE svg PUBLIC "-//W3C//DTD SVG 1.1//EN" "http://www.w3.org/Graphics/SVG/1.1/DTD/svg11.dtd"><svg t="1596361028054" class="icon" viewBox="0 0 1024 1024" version="1.1" xmlns="http://www.w3.org/2000/svg" p-id="3599" xmlns:xlink="http://www.w3.org/1999/xlink" width="200" height="200"><defs><style type="text/css"></style></defs><path d="M512 192c188.32 0 357.344 107.04 506.144 317.536a32 32 0 0 1 0 36.928C869.344 756.96 700.32 864 512 864S154.656 756.96 5.856 546.464a32 32 0 0 1 0-36.928C154.656 299.04 323.68 192 512 192z m0 64c-154.368 0-296.384 83.52-426.752 253.6l-9.088 12.032-4.704 6.368 4.704 6.4c126.848 170.016 264.704 257.472 414.4 265.056l10.688 0.416L512 800c154.368 0 296.384-83.52 426.752-253.6l9.088-12.032 4.672-6.4-4.672-6.336c-126.848-170.048-264.704-257.504-414.4-265.088l-10.688-0.416L512 256z m0 64a192 192 0 1 1 0 384 192 192 0 0 1 0-384z m0 64a128 128 0 1 0 0 256 128 128 0 0 0 0-256z" fill="#00CCFF" p-id="3600"></path></svg>