<?xml version="1.0" encoding="UTF-8"?>
<svg width="48px" height="48px" viewBox="0 0 48 48" version="1.1" xmlns="http://www.w3.org/2000/svg" xmlns:xlink="http://www.w3.org/1999/xlink">
    <title>icon/VPCID</title>
    <g id="icon/VPCID" stroke="none" stroke-width="1" fill="none" fill-rule="evenodd">
        <path d="M23,29 L23,31 L21,31 L21,38 L23,38 L23,40 L17,40 L17,38 L19,38 L19,31 L17,31 L17,29 L23,29 Z M25,40 L25,29 L28.5,29 C31.5375661,29 34,31.4624339 34,34.5 C34,37.4634791 31.65622,39.8795391 28.7212071,39.9956328 L28.5,40 L25,40 Z M27,38 L28.5,38 C30.4329966,38 32,36.4329966 32,34.5 C32,32.6314366 30.5357224,31.1048736 28.6920352,31.0051789 L28.5,31 L27,31 L27,38 Z M26.8855835,8 C31.4865294,8 35.3871236,11.2607387 36.4080883,15.6989667 L36.4669798,15.9721485 L36.4768478,16.028 L36.6895696,16.0143387 L36.8650665,16.0063784 L37.2173913,16 C42.6201769,16 47,20.4771525 47,26 C47,30.5270207 44.039959,34.4091445 39.9170636,35.6145464 L39.6523381,35.6878321 L39.4468478,35.738 L39.4475773,36 L36,36 L36,34 L37.7459286,34 L38.3030781,33.9195579 C41.9585001,33.3860523 44.7481813,30.2817229 44.9838523,26.5172496 L44.9959432,26.2595805 L45,26 C45,21.581722 41.5035571,18 37.1904762,18 C36.8371553,18 36.4873022,18.0239713 36.1428146,18.0713714 L35.8001856,18.126561 L34.7549727,18.3197093 L34.655026,17.2365497 C34.277999,13.150568 30.9164182,10 26.8805347,10 C23.1029915,10 19.8951713,12.7657424 19.20757,16.5053155 L19.165485,16.7560434 L18.9510263,18.167523 L17.7297428,17.4780597 C17.0410455,17.0892626 16.2652029,16.8823529 15.4573935,16.8823529 C12.9449599,16.8823529 10.8985142,18.8882706 10.7865995,21.3835987 L10.7817787,21.5986471 L10.7846069,21.7835504 L10.8538404,23.0928591 L9.7510162,23.0136621 C9.62440511,23.0045698 9.49703672,23 9.36904762,23 C6.4038045,23 4,25.4624339 4,28.5 C4,31.5375661 6.4038045,34 9.36904762,34 L9.55474799,33.9967831 L9.55474799,33.9967831 L9.73948037,33.9871537 L10.7752157,33.9150478 L10.7757381,34 L15,34 L15,36 L8.80256181,36 L8.80184783,35.979 L8.63035864,35.9656671 C5.06824782,35.6177225 2.24934093,32.666241 2.01567396,28.9941925 L2.00376979,28.7427311 L2,28.5 C2,24.686269 4.78464168,21.537379 8.38888322,21.0620393 L8.63035864,21.0343329 L8.8223913,21.018 L8.83211575,20.9141994 C9.16307396,17.6792875 11.7512506,15.1268857 14.9686461,14.8989306 L15.2051647,14.8864232 L15.4382151,14.8823529 C15.9364098,14.8823529 16.4270602,14.9381994 16.9031263,15.046919 L17.2573313,15.138326 L17.4897826,15.211 L17.5167148,15.1143226 C18.683888,11.1393887 22.187963,8.25452311 26.3292449,8.01598634 L26.6125725,8.00384146 L26.8855835,8 Z" id="形状结合" fill="#4072D5" fill-rule="nonzero"></path>
    </g>
</svg>