<?xml version="1.0" encoding="UTF-8"?>
<svg width="16px" height="16px" viewBox="0 0 16 16" version="1.1" xmlns="http://www.w3.org/2000/svg" xmlns:xlink="http://www.w3.org/1999/xlink">
    <title>icon/阈值测算/16</title>
    <g id="icon/阈值测算/16" stroke="none" stroke-width="1" fill="none" fill-rule="evenodd">
        <path d="M7.5,0 C11.6421356,0 15,3.35786438 15,7.5 C15,11.6421356 11.6421356,15 7.5,15 C3.35786438,15 0,11.6421356 0,7.5 C0,3.35786438 3.35786438,0 7.5,0 Z M7.5,1 C3.91014913,1 1,3.91014913 1,7.5 C1,11.0898509 3.91014913,14 7.5,14 C11.0898509,14 14,11.0898509 14,7.5 C14,3.91014913 11.0898509,1 7.5,1 Z M11,3.29289322 L11.7071068,4 L8.8542917,6.85429037 C8.94770205,7.04985504 9,7.2688201 9,7.5 C9,8.32842712 8.32842712,9 7.5,9 C7.2688201,9 7.04985504,8.94770205 6.85429037,8.8542917 L5.5,10.2071068 L4.79289322,9.5 L6.1457083,8.14570963 C6.05229795,7.95014496 6,7.7311799 6,7.5 C6,6.67157288 6.67157288,6 7.5,6 C7.7311799,6 7.95014496,6.05229795 8.14570963,6.1457083 L11,3.29289322 Z M12.5060569,5.21873808 C12.8232548,5.91368274 13,6.68620084 13,7.5 C13,7.66875367 12.9923999,7.83573225 12.9775233,8.00061211 L11.9724574,8.00070744 C11.9906566,7.83631236 12,7.66924732 12,7.5 C12,6.94433392 11.8992857,6.41219091 11.7151158,5.92082961 L12.5060569,5.21873808 Z M7.5,2 C8.50552494,2 9.44802646,2.26983531 10.2590437,2.74104504 L9.52238128,3.47896038 C8.9143595,3.17255494 8.22733093,3 7.5,3 C5.01471863,3 3,5.01471863 3,7.5 C3,7.66924732 3.00934344,7.83631236 3.02754265,8.00070744 L2.0224767,8.00061211 C2.0076001,7.83573225 2,7.66875367 2,7.5 C2,4.46243388 4.46243388,2 7.5,2 Z" id="形状结合" fill="#2A62D1"></path>
    </g>
</svg>