<?xml version="1.0" encoding="UTF-8"?>
<svg width="32px" height="32px" viewBox="0 0 32 32" version="1.1" xmlns="http://www.w3.org/2000/svg" xmlns:xlink="http://www.w3.org/1999/xlink">
    <title>icon/阈值测算/32</title>
    <g id="icon/阈值测算/32" stroke="none" stroke-width="1" fill="none" fill-rule="evenodd">
        <g id="icon/阈值测算/16" fill="#2A62D1">
            <path d="M15,0 C23.2842712,0 30,6.71572875 30,15 C30,23.2842712 23.2842712,30 15,30 C6.71572875,30 0,23.2842712 0,15 C0,6.71572875 6.71572875,0 15,0 Z M15,2 C7.82029825,2 2,7.82029825 2,15 C2,22.1797017 7.82029825,28 15,28 C22.1797017,28 28,22.1797017 28,15 C28,7.82029825 22.1797017,2 15,2 Z M22,6.58578644 L23.4142136,8 L17.7079575,13.7072712 C17.8951705,14.0987325 18,14.5371241 18,15 C18,16.6568542 16.6568542,18 15,18 C14.5371241,18 14.0987325,17.8951705 13.7072712,17.7079575 L11,20.4142136 L9.58578644,19 L12.292515,16.2937164 C12.1050059,15.9020049 12,15.4632652 12,15 C12,13.3431458 13.3431458,12 15,12 C15.4632652,12 15.9020049,12.1050059 16.2937164,12.292515 L22,6.58578644 Z M25.0111363,10.4353352 C25.6461465,11.8257788 26,13.3715659 26,15 C26,15.337337 25.9848151,15.6711273 25.9550916,16.0007248 L23.9449943,16.0006955 C23.9813404,15.6721373 24,15.3382478 24,15 C24,13.888422 23.7984823,12.823911 23.4299871,11.8410071 L25.0111363,10.4353352 Z M15,4 C17.0110328,4 18.8960209,4.53966146 20.518046,5.48206606 L19.0430852,6.95707573 C17.8274556,6.34479262 16.4539931,6 15,6 C10.0294373,6 6,10.0294373 6,15 C6,15.3382478 6.01865963,15.6721373 6.05500569,16.0006955 L4.04490836,16.0007248 C4.01518487,15.6711273 4,15.337337 4,15 C4,8.92486775 8.92486775,4 15,4 Z" id="形状结合"></path>
        </g>
    </g>
</svg>