<?xml version="1.0" standalone="no"?><!DOCTYPE svg PUBLIC "-//W3C//DTD SVG 1.1//EN" "http://www.w3.org/Graphics/SVG/1.1/DTD/svg11.dtd"><svg t="1596697321187" class="icon" viewBox="0 0 1024 1024" version="1.1" xmlns="http://www.w3.org/2000/svg" p-id="4586" xmlns:xlink="http://www.w3.org/1999/xlink" width="200" height="200"><defs><style type="text/css"></style></defs><path d="M511.997 32c-261.318 0-473.857 208.821-479.827 468.697 5.55-226.728 177.952-408.7 389.831-408.7 215.39 0 389.981 188.032 389.981 419.98 0 49.708 40.288 89.995 89.995 89.995s89.995-40.288 89.995-89.995c0-265.097-214.88-479.977-479.977-479.977zM511.997 991.954c261.318 0 473.858-208.821 479.827-468.697-5.55 226.728-177.952 408.7-389.831 408.7-215.39 0-389.981-188.032-389.981-419.98 0-49.708-40.288-89.995-89.995-89.995s-89.995 40.288-89.995 89.995c0 265.097 214.88 479.977 479.977 479.977z" p-id="4587" fill="#219C77"></path></svg>