<?xml version="1.0" encoding="UTF-8"?>
<svg width="64px" height="64px" viewBox="0 0 64 64" version="1.1" xmlns="http://www.w3.org/2000/svg" xmlns:xlink="http://www.w3.org/1999/xlink">
    <title>插画/高级资产分析/插件</title>
    <defs>
        <linearGradient x1="0%" y1="53.2087054%" x2="98.4453125%" y2="53.2087054%" id="linearGradient-1">
            <stop stop-color="#FFFFFF" offset="0%"></stop>
            <stop stop-color="#D3EEFF" offset="100%"></stop>
        </linearGradient>
        <linearGradient x1="9.97229917%" y1="0%" x2="94.2453632%" y2="106.428329%" id="linearGradient-2">
            <stop stop-color="#B6F3FF" offset="0%"></stop>
            <stop stop-color="#2A62D1" offset="100%"></stop>
        </linearGradient>
        <linearGradient x1="50%" y1="0%" x2="50%" y2="98.4955659%" id="linearGradient-3">
            <stop stop-color="#A9E2FF" offset="0%"></stop>
            <stop stop-color="#4D7DDE" offset="100%"></stop>
        </linearGradient>
        <polygon id="path-4" points="5 0 9.33012702 2.5 9.33012702 7.5 5 10 0.669872981 7.5 0.669872981 2.5"></polygon>
    </defs>
    <g id="插画/高级资产分析/插件" stroke="none" stroke-width="1" fill="none" fill-rule="evenodd">
        <circle id="椭圆形" fill="url(#linearGradient-1)" opacity="0.900000036" cx="32" cy="32" r="32"></circle>
        <rect id="矩形" fill="url(#linearGradient-2)" x="15" y="14" width="34" height="38"></rect>
        <polygon id="多边形" fill="#0E3075" points="32 7 38.9282032 11 38.9282032 19 32 23 25.0717968 19 25.0717968 11"></polygon>
        <g id="编组-2" transform="translate(27.000000, 10.000000)">
            <mask id="mask-5" fill="white">
                <use xlink:href="#path-4"></use>
            </mask>
            <use id="多边形" fill="url(#linearGradient-3)" xlink:href="#path-4"></use>
            <polygon id="路径-4" fill="#FFFFFF" opacity="0.800000012" mask="url(#mask-5)" points="1 3 5 5.18181818 5 11 1 11"></polygon>
            <polygon id="路径-4备份" fill="#FFFFFF" opacity="0.600000024" mask="url(#mask-5)" transform="translate(7.000000, 7.000000) scale(-1, 1) translate(-7.000000, -7.000000) " points="5 3 9 5.18181818 9 11 5 11"></polygon>
        </g>
        <rect id="矩形" fill="#FFFFFF" opacity="0.600000024" x="22" y="28" width="20" height="2"></rect>
        <rect id="矩形备份-12" fill="#FFFFFF" opacity="0.300000012" x="22" y="34" width="20" height="2"></rect>
        <rect id="矩形备份-14" fill="#FFFFFF" opacity="0.300000012" x="22" y="38" width="20" height="2"></rect>
        <rect id="矩形备份-13" fill="#FFFFFF" opacity="0.300000012" x="22" y="42" width="16" height="2"></rect>
    </g>
</svg>