<?xml version="1.0" encoding="UTF-8"?>
<svg width="48px" height="48px" viewBox="0 0 48 48" version="1.1" xmlns="http://www.w3.org/2000/svg" xmlns:xlink="http://www.w3.org/1999/xlink">
    <title>01-icon_line/06-提示反馈类/安全/safe_48</title>
    <g id="01-icon_line/06-提示反馈类/安全/safe_48" stroke="none" stroke-width="1" fill="none" fill-rule="evenodd">
        <g id="USB-fill">
            <rect id="矩形" fill="#000000" fill-rule="nonzero" opacity="0" x="0" y="0" width="48" height="48"></rect>
            <path d="M24.1131658,3 C27.5705862,3.04314991 31.0051461,3.57768063 34.3173243,4.58810342 C36.448317,5.29127049 38.4988767,6.22564888 40.4336538,7.37513077 C41.4243139,7.96335323 42.3503206,8.65778422 43.1958671,9.44657002 L43.2101877,9.7368378 C43.2419547,10.6771855 43.2420513,13.8742862 42.1415401,18.9186968 C41.3368755,22.4733383 40.1263384,25.9198886 38.5346321,29.1880137 C36.9621306,32.4409252 34.9648664,35.4624623 32.5971067,38.1705276 C30.0842729,40.8880572 27.2071051,43.1919802 24,45 C20.7933421,43.1605078 17.847485,40.8319181 15.3332736,38.0952025 C12.9785239,35.3525236 10.9484395,32.3376869 9.28476635,29.1126887 C7.70796138,25.8169866 6.51403714,22.3453263 5.7271836,18.7680466 C5.06182684,15.7412875 4.7288938,12.6486296 4.73444324,9.54700344 L4.80278172,9.46850792 C5.04862874,9.20025504 6.01063708,8.25545004 8.52639082,6.80391571 C9.69427199,6.15925334 10.9031528,5.59531659 12.1448285,5.11582063 L12.7683612,4.88312659 C17.3032525,3.1276696 23.2419328,3.00865557 24.0263335,3.00058682 L24.1131658,3 Z M24.1149415,5.203125 L23.3208964,5.22488678 C21.5208223,5.29729592 17.018517,5.60813026 13.5489392,6.93234083 C12.1941982,7.42705355 10.8800932,8.03041044 9.61897672,8.73673995 C8.68184658,9.25920371 7.78539648,9.85405793 6.9375,10.516078 C7.00334342,13.1320235 7.31431443,15.7355819 7.86617657,18.2912839 C8.61533342,21.6849681 9.74623887,24.9792997 11.236473,28.1089694 C12.8105659,31.1423079 14.7259093,33.9786798 16.9438363,36.560825 C19.0183739,38.8135902 21.4178381,40.7694581 24.0082018,42.375 C26.6004266,40.7688876 28.9377469,38.8201564 31.0277392,36.5796209 C33.0845869,34.2115351 34.8432722,31.5923179 36.26371,28.7828143 L36.5628976,28.1778875 L36.5997987,28.1089694 C38.0863412,25.021003 39.2252142,21.7716396 39.9946958,18.4228547 C40.5928999,15.8136761 40.9348927,13.1503578 41.015625,10.4722211 C40.4600174,10.031727 39.8787918,9.6258331 39.2751252,9.25675775 C37.4874486,8.1982456 35.59499,7.33511184 33.6292637,6.68172984 C30.5393618,5.74684572 27.3379258,5.24931594 24.1149415,5.203125 Z" id="形状" fill="#219C77"></path>
            <path d="M33.1324728,14.8125 L36,14.8125 C27.090793,25.65625 22.6301952,31.078125 22.6182065,31.078125 L14.015625,20.5533088 L16.8831522,20.5533088 L22.6182065,26.2941176 L33.1324728,14.8125 Z" id="路径" fill="#219C77"></path>
        </g>
    </g>
</svg>