<?xml version="1.0" standalone="no"?><!DOCTYPE svg PUBLIC "-//W3C//DTD SVG 1.1//EN" "http://www.w3.org/Graphics/SVG/1.1/DTD/svg11.dtd"><svg t="1596276460640" class="icon" viewBox="0 0 1024 1024" version="1.1" xmlns="http://www.w3.org/2000/svg" p-id="3673" xmlns:xlink="http://www.w3.org/1999/xlink" width="200" height="200"><defs><style type="text/css"></style></defs><path d="M544 768v64h32v128h-128v-128h32v-64H32V64h960v704H544z m448 96v64H640v-64h352z m-608 0v64H32v-64h352zM928 128H96v576h832V128zM192 320h64v192H192v-192z m96 0h64v192H288v-192z m544 0v32h32v96h-32v32h-64v32h-64v-192h128z m-320 0v64h-32v128h-64v-128h-32v-64h128z m-224 64v64H256v-64h32z m512 0h-32v32h32v-32z m-160 128h-64v-128h-32v-64h128v64h-32v128z" p-id="3674" fill="#cdcdcd"></path></svg>