<?xml version="1.0" standalone="no"?><!DOCTYPE svg PUBLIC "-//W3C//DTD SVG 1.1//EN" "http://www.w3.org/Graphics/SVG/1.1/DTD/svg11.dtd"><svg t="1596277937459" class="icon" viewBox="0 0 1170 1024" version="1.1" xmlns="http://www.w3.org/2000/svg" p-id="2489" xmlns:xlink="http://www.w3.org/1999/xlink" width="228.515625" height="200"><defs><style type="text/css"></style></defs><path d="M914.285714 0v146.285714h256v877.714286H0V146.285714h256V0h658.285714z m-73.142857 73.142857H329.142857v146.285714H73.142857v731.428572h1024V219.428571h-256V73.142857zM256 475.428571v219.428572H182.857143v-219.428572h73.142857z m512 0v219.428572h-73.142857v-146.285714h-36.571429v146.285714h-73.142857v-146.285714h-36.571428v146.285714h-73.142858v-219.428572h292.571429z m-329.142857 0v73.142858h-73.142857v73.142857h73.142857v73.142857H292.571429v-219.428572h146.285714z m512 0v36.571429h36.571428v109.714286h-36.571428v36.571428h-73.142857v36.571429h-73.142857v-219.428572h146.285714z m-36.571429 109.714286v-36.571428h-36.571428v36.571428h36.571428z" p-id="2490" fill="#cdcdcd"></path></svg>