<?xml version="1.0" encoding="UTF-8"?>
<svg width="550px" height="90px" viewBox="0 0 550 90" version="1.1" xmlns="http://www.w3.org/2000/svg" xmlns:xlink="http://www.w3.org/1999/xlink">
    <!-- Generator: Sketch 64 (93537) - https://sketch.com -->
    <title>07-品牌应用/腾讯御界/白底应用/横排/yujie</title>
    <desc>Created with Sketch.</desc>
    <g id="登录" stroke="none" stroke-width="1" fill="none" fill-rule="evenodd">
        <g id="07-品牌应用/腾讯御界/白底应用/横排/yujie" transform="translate(-2.000000, 0.000000)">
            <g id="06-品牌字体/腾讯御界/深色/yujie" transform="translate(96.949367, 11.250000)">
                <polygon id="Fill-1" fill-opacity="0" fill="#2D2D2D" fill-rule="evenodd" points="0 67.5 458.050633 67.5 458.050633 0 0 0"></polygon>
                <path d="M449.748717,46.74375 L454.244919,47.86875 L454.093436,49.5386719 L454.093436,49.5386719 L453.992008,50.79375 C453.898337,51.99375 453.795299,53.0625 453.682894,54 C453.420615,55.875 452.933527,57.225 452.221628,58.05 C451.564491,58.8115385 450.508282,59.285503 449.053003,59.4718935 L448.680869,59.5125 C448.08762,59.575 447.390292,59.6179687 446.588885,59.6414062 L446.095552,59.653125 L445.336818,59.6583984 C444.578084,59.6548828 443.81935,59.625 443.060615,59.56875 C442.086438,59.53125 441.290236,59.409375 440.672008,59.203125 C440.05378,58.996875 439.566691,58.66875 439.210742,58.21875 C438.854793,57.76875 438.601881,57.178125 438.452008,56.446875 C438.323545,55.8200893 438.250138,55.0486607 438.231786,54.1325893 L438.227198,53.6625 L438.227198,35.15625 L432.550742,35.49375 L432.550742,38.7 L432.526625,39.4272094 C432.316264,44.7125118 431.36886,48.9513587 429.684413,52.14375 C428.02981,55.23975 424.855851,58.33575 420.162535,61.43175 L419.567957,61.81875 L416.757831,57.825 L417.30304,57.49722 C421.602129,54.88074 424.399127,52.4025 425.694033,50.0625 C427.024909,47.7225 427.786026,44.0001 427.977385,38.8953 L427.998337,38.25 L427.998337,35.71875 L421.366438,35.94375 L420.579603,31.6125 L420.816456,31.6027423 C421.282134,31.5637117 421.699639,31.4075893 422.06897,31.134375 C422.499856,30.815625 422.846438,30.525 423.108717,30.2625 C423.633274,29.7375 424.229547,29.0617676 424.897538,28.2353027 L425.18821,27.871875 C425.975046,26.878125 426.855552,25.6875 427.829729,24.3 L428.813274,22.921875 C429.131755,22.471875 429.440869,22.03125 429.740615,21.6 L430.611755,20.334375 L430.611755,20.334375 L431.426691,19.125 L421.478843,19.125 L421.478843,14.625 L434.517831,14.625 L433.730995,12.15 L433.574752,11.687625 C433.367927,11.084625 433.167096,10.535625 432.972261,10.040625 L432.564231,9.018 L432.564231,9.018 L432.325932,8.4375 L436.822134,7.36875 L436.974089,7.68125 C437.384854,8.54791667 437.840025,9.68125 438.339603,11.08125 L438.689307,12.0145833 C439.014033,12.90625 439.263822,13.6729167 439.438675,14.3145833 L439.519856,14.625 L453.120869,14.625 L453.120869,19.125 L436.709729,19.125 L432.887957,24.75 L432.473894,25.3509566 C431.652648,26.5333546 430.872695,27.5986607 430.134033,28.546875 C429.41589,29.46875 428.736776,30.2929687 428.096691,31.0195312 L427.717324,31.44375 L428.176256,31.4339312 L429.242205,31.4044212 C430.722573,31.3576805 432.439348,31.2813639 434.392533,31.1754711 L435.136058,31.134375 C438.133527,30.965625 441.318337,30.73125 444.690489,30.43125 C443.716312,29.04375 442.807704,27.80625 441.964666,26.71875 L440.937536,25.4031888 C440.614085,24.9922194 440.309559,24.608801 440.023958,24.2529337 L439.744666,23.90625 L443.229223,21.6 L443.486745,21.8825684 C444.797405,23.3371582 446.453843,25.4179687 448.456058,28.125 L449.217427,29.1673828 C450.689231,31.1994141 451.855433,32.9150391 452.716035,34.3142578 L453.120869,34.9875 L449.355299,37.8 L449.055552,37.3 C448.922331,37.0722222 448.789111,36.837037 448.65589,36.5944444 L448.456058,36.225 C448.231248,35.803125 447.974824,35.3601562 447.686786,34.8960937 L447.38821,34.425 L446.214983,34.5304687 L443.910679,34.7132812 L443.910679,34.7132812 L442.779603,34.81875 L442.781164,52.5640625 C442.786368,53.0588542 442.804582,53.4625 442.835805,53.775 C442.873274,54.15 442.985679,54.43125 443.17302,54.61875 C443.360362,54.80625 443.641375,54.928125 444.016058,54.984375 C444.328295,55.03125 444.74461,55.0585937 445.265004,55.0664062 L445.917195,55.0670281 C446.552628,55.0601403 447.071068,55.0325893 447.472514,54.984375 C447.940869,54.928125 448.306185,54.80625 448.568464,54.61875 C448.830742,54.43125 449.008717,54.13125 449.102388,53.71875 C449.196058,53.30625 449.280362,52.7625 449.355299,52.0875 C449.405257,51.4625 449.451051,50.8458333 449.492683,50.2375 L449.552008,49.33125 C449.589476,48.73125 449.631108,48.1479167 449.676902,47.58125 L449.748717,46.74375 Z M77.4310301,51.3 L77.8876757,50.5335937 C78.6292369,49.2601562 79.2732242,48.00625 79.8196377,46.771875 C80.4753339,45.290625 81.009258,43.8375 81.4214099,42.4125 C82.7347743,37.8651316 83.5437171,32.4258657 83.8482383,26.0947022 L83.8943213,25.03125 L84.1191314,15.58125 L79.5667263,15.58125 L79.5667263,11.1375 L105.532296,11.1375 L105.476093,15.58125 L105.110777,16.651125 C104.616195,18.064125 104.091638,19.423125 103.537106,20.728125 C103.017233,21.9515625 102.460476,23.1591797 101.866837,24.3509766 L101.260904,25.5375 L108.623435,25.5375 L108.623435,29.98125 L108.256037,31.0947917 C107.262432,34.0336806 106.157809,36.728125 104.942169,39.178125 C103.574574,41.934375 102.047739,44.45625 100.361663,46.74375 C102.122676,48.50625 104.061663,50.165625 106.178625,51.721875 C107.94276,53.01875 109.791459,54.2440104 111.724722,55.3976562 L112.894828,56.08125 L109.747486,60.69375 L108.836171,60.0732422 C104.625372,57.1693359 101.00265,54.1505859 97.968006,51.0169922 L97.3267263,50.34375 L96.6400017,51.0583008 C95.0089574,52.7194336 93.1771061,54.3375 91.1444479,55.9125 C89.0795252,57.5125 86.7777656,59.0976852 84.2391689,60.6680556 L83.2760934,61.25625 L80.4097643,57.31875 L81.3724929,56.7795139 C83.9092392,55.3369213 86.2017474,53.8572917 88.2500175,52.340625 C90.5543213,50.634375 92.6057137,48.825 94.4041947,46.9125 C94.1419162,46.575 93.8890048,46.2375 93.6454605,45.9 L93.2871694,45.39375 L93.2871694,45.39375 L92.9429289,44.8875 C91.8188782,43.275 90.8072327,41.53125 89.9079922,39.65625 C89.1586251,38.09375 88.4612974,36.4401042 87.816009,34.6953125 L87.4350808,33.6375 L87.3179922,34.6382812 C87.1150386,36.2867187 86.8730555,37.8375 86.5920428,39.290625 C86.2548276,41.034375 85.8801441,42.69375 85.4679922,44.26875 C84.1419382,49.1470109 81.4789227,54.2482869 77.4789457,59.572578 L76.9252074,60.3 L73.1596377,57.43125 L73.7434559,56.6644133 C74.6992812,55.3940051 75.5690823,54.1618622 76.3528591,52.9679847 L76.8128023,52.25625 L76.1260074,52.459875 C75.1937947,52.732875 74.1956377,53.011875 73.1315365,53.296875 C71.8014099,53.653125 70.4244479,54 69.0006504,54.3375 C67.5768529,54.675 66.1343213,54.99375 64.6730555,55.29375 C63.5771061,55.51875 62.5022327,55.7226562 61.4484352,55.9054687 L60.4016631,56.08125 L59.5586251,51.6375 L60.0351996,51.5686224 C60.8476512,51.4461735 61.7509061,51.2854592 62.7449645,51.0864796 L63.352296,50.9625 C64.7948276,50.6625 66.4153339,50.2875 68.2138149,49.8375 L73.0753339,48.515625 C74.3117896,48.178125 75.4174884,47.8475128 76.3924303,47.5237883 L76.8690048,47.3625 L77.4310301,51.3 Z M192.694394,11.30625 L192.694394,54.675 L192.689089,55.0446429 C192.643114,56.6116071 192.2983,57.7258929 191.654647,58.3875 C191.019246,59.040625 190.045394,59.4731771 188.733091,59.6851562 L188.366799,59.7375 C187.488969,59.8660714 186.635608,59.9456633 185.806716,59.9762755 L185.189636,59.990051 L184.581731,59.9854592 L184.581731,59.9854592 L183.983002,59.9625 L183.083761,55.29375 L183.434465,55.3365 C183.798657,55.377 184.203316,55.41075 184.64844,55.43775 L185.107052,55.4625 C185.893888,55.5 186.493381,55.5 186.905533,55.4625 C187.542495,55.4625 187.992116,55.340625 188.254394,55.096875 C188.492829,54.8752841 188.622884,54.320532 188.64456,53.4326188 L188.647812,53.15625 L188.647812,42.46875 L181.903508,42.46875 L181.870245,43.1503508 L181.796838,44.4567283 C181.653846,46.7823023 181.464593,48.7258929 181.229078,50.2875 C180.966799,51.975 180.535913,53.68125 179.936419,55.40625 C179.411862,56.915625 178.743872,58.5398437 177.932448,60.2789062 L177.575913,61.03125 L173.697938,59.11875 L174.073578,58.3668367 C174.805358,56.869898 175.420144,55.4142857 175.917938,54 C176.498698,52.35 176.938951,50.6625 177.238698,48.9375 C177.776175,45.9452586 178.072714,41.2499554 178.128315,34.8515904 L178.136869,33.3448127 L178.137938,11.30625 L192.694394,11.30625 Z M164.512839,24.69375 L164.241479,25.8644044 C162.680079,32.4320433 160.627175,38.2692545 158.082764,43.3760378 L157.599927,44.325 L156.475877,46.40625 L156.728788,47.1269531 C156.981699,47.8371094 157.234611,48.515625 157.487522,49.1625 C157.824737,50.025 158.199421,50.83125 158.611573,51.58125 C159.773092,53.98125 160.691067,55.125 161.365497,55.0125 C161.74018,54.975 162.077396,54.69375 162.377142,54.16875 C162.676889,53.64375 162.99537,52.74375 163.332585,51.46875 C163.594864,50.38125 163.819674,49.340625 164.007016,48.346875 L164.569041,45.39375 L168.447016,46.9125 L168.327867,47.617875 C168.160008,48.568875 167.95618,49.561875 167.716383,50.596875 C167.466594,51.675 167.216805,52.6424479 166.967016,53.4992187 L166.817142,54 C166.18018,56.2125 165.468282,57.75 164.681446,58.6125 C163.894611,59.475 162.882965,59.90625 161.64651,59.90625 C160.972079,59.90625 160.353851,59.803125 159.791826,59.596875 C159.229801,59.390625 158.667775,59.04375 158.10575,58.55625 C157.543725,58.06875 156.981699,57.403125 156.419674,56.559375 C155.927902,55.8210937 155.3931,54.9177246 154.815267,53.8492676 L154.564991,53.38125 L154.002965,52.25625 L153.815623,51.875 L153.628282,51.48125 L153.628282,51.48125 L153.44094,51.075 L152.77775,51.993 C151.87851,53.211 150.91932,54.405 149.90018,55.575 C148.881041,56.745 147.801953,57.903 146.662915,59.049 L145.797396,59.90625 L142.369041,56.5875 L143.153869,55.8307079 C146.511302,52.5450574 149.303363,49.1785714 151.530054,45.73125 C149.755303,39.78625 148.400697,31.73875 147.466236,21.58875 L147.371067,20.53125 L125.733092,20.53125 L125.733092,31.3875 L125.722571,32.25258 L125.692356,33.93522 C125.559149,39.98874 125.17931,44.7645 124.552839,48.2625 C123.885434,51.91875 122.54294,55.8551514 120.525356,60.0717041 L120.112839,60.91875 L115.729041,58.6125 L116.182676,57.7325893 C117.065859,55.9808036 117.80452,54.2772321 118.398661,52.621875 C119.091826,50.690625 119.62575,48.80625 120.000434,46.96875 C120.657571,43.6802885 121.011414,38.9699334 121.061963,32.8376849 L121.068282,31.275 L121.068282,16.03125 L146.977649,16.03125 L146.787844,13.6130839 C146.647824,11.722513 146.55318,10.1433607 146.503914,8.87562716 L146.471826,7.81875 L151.136636,7.81875 L151.156931,8.3734375 C151.178788,8.9390625 151.205328,9.5375 151.236552,10.16875 L151.374063,12.6734694 L151.374063,12.6734694 L151.586256,16.03125 L158.78018,16.03125 L157.318915,13.55625 L157.031158,13.07475 C156.653477,12.45075 156.299775,11.89875 155.970054,11.41875 L155.493456,10.73475 C155.340585,10.51875 155.19371,10.31475 155.052829,10.12275 L154.846003,9.84375 L158.218155,7.7625 L158.392227,7.9796875 C158.691453,8.35989583 159.036214,8.83125 159.42651,9.39375 L160.150117,10.4484375 C160.398345,10.8140625 160.653598,11.19375 160.915877,11.5875 C161.440434,12.3375 161.87132,13.0125 162.208535,13.6125 L162.586216,14.3055 C162.703117,14.5275 162.811026,14.7405 162.909942,14.9445 L163.051573,15.24375 L161.534104,16.03125 L167.098155,16.03125 L167.098155,20.53125 L151.923472,20.53125 L152.015925,21.6908437 C152.300872,25.1384062 152.654104,28.305 153.075623,31.190625 C153.491939,34.040625 153.960062,36.6609954 154.479993,39.0517361 L154.677396,39.9375 L155.07257,39.0506836 C156.892127,34.875293 158.367443,30.1831055 159.498519,24.9741211 L159.735623,23.85 L164.512839,24.69375 Z M243.300759,7.875 L243.300759,18.45 L249.764051,18.45 L249.764051,23.00625 L243.300759,23.00625 L243.300759,26.60625 L244.078228,27.43125 C244.590295,27.98125 245.089873,28.53125 245.576962,29.08125 C246.307595,29.90625 246.982025,30.69375 247.600253,31.44375 L248.310653,32.31675 C248.650116,32.73975 248.965975,33.1425 249.258228,33.525 L249.918608,34.4109375 C250.049747,34.5921875 250.170478,34.7630208 250.280802,34.9234375 L250.438481,35.15625 L246.897722,38.19375 L246.711129,37.8945 C246.453347,37.4865 246.159595,37.0425 245.829873,36.5625 L245.299322,35.8065 C245.204901,35.6745 245.107484,35.5395 245.007068,35.4015 L244.368608,34.5375 L243.300759,33.075 L243.300759,60.6375 L238.973165,60.6375 L238.973165,34.03125 L238.211308,35.940625 C237.695077,37.2114583 237.162194,38.478125 236.612658,39.740625 C235.953215,41.255625 235.257803,42.728625 234.52642,44.159625 L233.971139,45.225 L230.317975,42.80625 L231.046887,41.4660077 C232.485213,38.7728954 233.806546,36.0040179 235.010886,33.159375 C236.240316,30.2554687 237.304798,27.3013184 238.204331,24.2969238 L238.579747,23.00625 L232.228861,23.00625 L232.228861,18.45 L238.973165,18.45 L238.973165,7.875 L243.300759,7.875 Z M222.110799,30.040875 C222.95009,31.849875 223.729432,33.676875 224.448824,35.521875 C225.168217,37.366875 225.81567,39.193875 226.391184,41.002875 L226.809331,42.35625 L223.099964,43.875 L222.708302,42.6761719 L221.935517,40.3417969 C221.807891,39.9597656 221.68085,39.58125 221.554394,39.20625 C221.217179,38.20625 220.8758,37.2229167 220.530259,36.25625 L220.008824,34.81875 L219.961614,36.446625 C219.89567,38.597625 219.817736,40.670625 219.727812,42.665625 C219.637888,44.660625 219.523984,46.721625 219.3861,48.848625 L219.278191,50.45625 C219.165786,52.18125 218.997179,53.596875 218.772369,54.703125 C218.547559,55.809375 218.210343,56.7 217.760723,57.375 C217.311103,58.05 216.702242,58.546875 215.934141,58.865625 C215.16604,59.184375 214.182495,59.41875 212.983508,59.56875 C211.984352,59.69375 211.076265,59.7796875 210.259246,59.8265625 L209.496703,59.860125 L209.496703,59.860125 L208.619943,59.877 L208.012956,59.877 L207.387984,59.868 L207.387984,59.868 L206.745027,59.85 L205.789584,54.73125 L206.386736,54.8085937 C206.990913,54.8789062 207.616166,54.928125 208.262495,54.95625 C209.124267,54.99375 209.98604,54.99375 210.847812,54.95625 C211.634647,54.95625 212.271609,54.909375 212.758698,54.815625 C213.245786,54.721875 213.62047,54.478125 213.882748,54.084375 C214.145027,53.690625 214.332369,53.109375 214.444774,52.340625 C214.544689,51.6572917 214.629803,50.7443287 214.700114,49.6017361 L214.832922,47.2623047 C214.93479,45.4025391 215.02085,43.6640625 215.091103,42.046875 C215.184774,39.890625 215.25971,37.790625 215.315913,35.746875 C215.353381,34.384375 215.386687,33.0052083 215.415829,31.609375 L215.456419,29.503125 C215.488535,27.6870536 215.506887,25.7263393 215.511475,23.6209821 L215.512622,22.55625 L208.037685,22.55625 L208.037685,23.00625 L208.003562,24.0411352 C207.846998,28.4833546 207.57736,32.3758929 207.194647,35.71875 C206.782495,39.31875 206.164267,42.54375 205.339964,45.39375 C204.51566,48.24375 203.447812,50.859375 202.136419,53.240625 C200.970737,55.3572917 199.553416,57.4813657 197.884455,59.6128472 L197.246799,60.4125 L193.481229,57.88125 L194.094253,57.1444444 C195.698454,55.1814815 197.058417,53.2333333 198.174141,51.3 C199.429331,49.125 200.450343,46.70625 201.237179,44.04375 C202.024014,41.38125 202.614141,38.334375 203.007559,34.903125 C203.372875,31.7169643 203.649348,27.989206 203.836976,23.7198501 L203.878698,22.725 L203.878698,22.55625 L195.448318,22.55625 L195.448318,18 L203.9349,18 L203.941926,15.5179687 L203.963002,13.021875 C203.977052,11.7703125 203.985834,10.4923828 203.989347,9.18808594 L203.991103,7.875 L208.3749,7.875 L208.15009,18 L220.289837,18 L220.121229,29.25 L221.47009,28.6875 L222.110799,30.040875 Z M312.734973,18.84375 L312.734973,35.04375 L312.728229,35.9685 C312.687763,38.71575 312.465201,41.22 312.060543,43.48125 C313.521809,44.71875 315.301555,46.5 317.399783,48.825 L318.360961,49.8604592 C319.133268,50.7022959 319.833888,51.4915179 320.462821,52.228125 L321.527802,53.4868622 C321.749553,53.7516582 321.961364,54.0065051 322.163235,54.2514031 L322.739024,54.95625 L319.535479,58.1625 L319.226365,57.7242187 C318.695564,56.9820312 318.086703,56.18125 317.399783,55.321875 C316.712863,54.4625 315.934875,53.5445312 315.065817,52.5679687 L313.010717,50.2822266 L313.010717,50.2822266 L312.538264,49.753125 C312.043682,49.198125 311.579074,48.697125 311.144441,48.250125 L310.824087,47.925 L310.591276,48.5384766 C309.708298,50.7685547 308.50261,52.7859375 306.974214,54.590625 C305.445817,56.3953125 303.531743,58.160612 301.231993,59.8865234 L300.595226,60.35625 L297.672695,56.98125 L298.33637,56.5059028 C300.077492,55.2373843 301.589178,53.9614583 302.871429,52.678125 C304.31396,51.234375 305.494214,49.621875 306.412188,47.840625 C307.330163,46.059375 307.995226,44.053125 308.407378,41.821875 C308.782062,39.7934659 308.986435,37.4473915 309.020497,34.7836519 L309.025606,33.975 L309.025606,18.84375 L312.734973,18.84375 Z M50.2049178,34.9875 L50.2049178,53.60625 L50.2003299,54.0763393 C50.181978,54.9924107 50.1085706,55.7638393 49.9801077,56.390625 C49.8302343,57.121875 49.5585887,57.7125 49.165171,58.1625 C48.7717533,58.6125 48.2378292,58.959375 47.5633988,59.203125 C46.8889685,59.446875 46.0271963,59.625 44.9780824,59.7375 C44.1038208,59.83125 43.1449952,59.8989583 42.1016056,59.940625 L41.4654242,59.9625 C40.6575128,59.9859375 39.9483949,60.0020508 39.3380705,60.0108398 L38.6531022,60.0178711 L38.3461836,60.01875 L37.4469431,55.40625 L37.8864469,55.449 C38.4889381,55.503 39.1573735,55.545 39.8917533,55.575 C40.8097279,55.6125 41.6433988,55.6125 42.3927659,55.575 C43.0671963,55.575 43.6104874,55.5375 44.0226393,55.4625 C44.4347912,55.3875 44.7532723,55.25625 44.9780824,55.06875 C45.2028925,54.88125 45.3433988,54.609375 45.3996014,54.253125 C45.4464368,53.95625 45.4737575,53.5617187 45.4815634,53.0695312 L45.4839052,52.7625 L45.4839052,38.8125 L11.425171,38.8125 L11.425171,60.24375 L6.81656339,60.24375 L6.81656339,34.9875 L50.2049178,34.9875 Z M387.508427,20.7 L386.147272,21.9041016 C384.773823,23.1029297 383.36349,24.2859375 381.916275,25.453125 C379.986655,27.009375 377.935263,28.55625 375.762098,30.09375 C373.626402,31.59375 371.537541,32.98125 369.495516,34.25625 C367.45349,35.53125 365.420832,36.7125 363.397541,37.8 C364.061266,37.8053571 364.727285,37.8076531 365.395598,37.8068878 L367.40742,37.7954082 C370.099024,37.7678571 372.827332,37.6913265 375.592343,37.5658163 L377.672984,37.4625 C378.871971,37.4025 380.017004,37.3305 381.108083,37.2465 L381.916275,37.18125 C383.246402,37.06875 384.510959,36.95625 385.709946,36.84375 C384.623364,35.64375 383.621085,34.59375 382.703111,33.69375 C381.938132,32.94375 381.231697,32.2848958 380.583807,31.7171875 L380.202098,31.3875 L383.742858,28.35 L384.085568,28.63625 C385.602198,29.9211389 387.431584,31.704013 389.573724,33.9848722 L390.037541,34.48125 C391.311465,35.83125 392.416782,37.06875 393.35349,38.19375 C394.156384,39.1580357 394.849166,40.0396684 395.431837,40.838648 L395.713997,41.23125 L392.285642,44.60625 L392.023949,44.2353516 C391.753475,43.8591797 391.456655,43.4671875 391.13349,43.059375 C390.810326,42.6515625 390.460816,42.2279297 390.084962,41.7884766 L389.700326,41.34375 L388.930176,41.4127441 C387.367043,41.5480957 385.666916,41.667627 383.829796,41.7713379 L375.750682,42.1879395 L375.750682,42.1879395 L374.638047,42.24375 L374.638047,53.60625 L374.607698,54.135 C374.556741,54.825 374.46382,55.455 374.328933,56.025 C374.160326,56.7375 373.869946,57.346875 373.457794,57.853125 C373.045642,58.359375 372.492984,58.7625 371.79982,59.0625 C371.106655,59.3625 370.235516,59.5875 369.186402,59.7375 C368.374588,59.8625 367.465199,59.9484375 366.458237,59.9953125 L365.842351,60.01875 C365.483726,60.0294643 365.141158,60.0371173 364.814648,60.0417092 L364.336926,60.046301 L363.883292,60.046301 C363.588897,60.0447704 363.310561,60.0401786 363.048282,60.0325255 L362.666908,60.01875 L361.655263,54.95625 L362.517035,55.025 C363.09155,55.0666667 363.666064,55.1 364.240579,55.125 C365.102351,55.1625 365.870452,55.1625 366.544883,55.125 C367.256782,55.125 367.828174,55.0875 368.25906,55.0125 C368.689946,54.9375 369.017794,54.796875 369.242604,54.590625 C369.467415,54.384375 369.617288,54.065625 369.692225,53.634375 C369.756456,53.2647321 369.79316,52.7779974 369.802336,52.1741709 L369.80463,51.8625 L369.80463,42.46875 L365.125627,42.5886105 C363.591569,42.6251119 362.124794,42.6570219 360.725303,42.6843406 L358.676528,42.721875 C357.027921,42.75 355.477668,42.7664062 354.025769,42.7710937 L353.166432,42.7725 C352.318898,42.7725 351.506771,42.7682812 350.730052,42.7598437 L349.965136,42.75 L349.403111,37.63125 L349.655449,37.6278061 C350.183064,37.6140306 350.848319,37.5589286 351.651212,37.4625 C352.587921,37.35 353.356022,37.2 353.955516,37.0125 C356.35349,36.1875 358.826402,35.1375 361.37425,33.8625 C363.603617,32.746875 365.890358,31.4302734 368.234471,29.9126953 L369.242604,29.25 L366.917225,29.3572266 C364.59887,29.4591797 362.301592,29.5453125 360.025389,29.615625 C358.002098,29.678125 355.978807,29.728125 353.955516,29.765625 L350.920579,29.8125 L350.302351,25.48125 L350.743369,25.4594388 C351.6082,25.4043367 352.369801,25.2803571 353.028174,25.0875 C353.796275,24.8625 354.42387,24.6375 354.910959,24.4125 C356.559566,23.484375 358.444303,22.2253906 360.565168,20.6355469 L361.14944,20.19375 C361.898807,19.63125 362.610706,19.078125 363.285136,18.534375 C363.734756,18.171875 364.17605,17.8052083 364.609018,17.434375 L365.252225,16.875 L364.251334,16.9232639 C361.941017,17.0318287 359.806361,17.112037 357.847368,17.1638889 L357.018554,17.184375 C356.200495,17.203125 355.412618,17.2145833 354.654925,17.21875 L353.907293,17.2204861 C352.923864,17.2195602 351.994094,17.2056713 351.117982,17.1788194 L350.470959,17.15625 L349.740326,12.31875 L351.752377,12.35475 C354.450098,12.39075 357.207769,12.37875 360.025389,12.31875 C363.547415,12.24375 367.406655,12.09375 371.603111,11.86875 L373.688258,11.7449334 C377.093666,11.5341346 380.149886,11.3011464 382.856919,11.0459689 L383.658554,10.96875 C386.801212,10.659375 389.558193,10.3027344 391.929498,9.89882812 L392.566655,9.7875 L393.522098,14.45625 L392.7557,14.5675878 C390.454613,14.8940341 387.884393,15.1898713 385.045041,15.4550993 L383.967668,15.553125 C381.200774,15.7983173 378.112406,16.0379623 374.702564,16.2720599 L371.546908,16.48125 L369.298807,16.65 L370.47906,18 L369.947384,18.486 C369.248974,19.122 368.592528,19.71 367.978047,20.25 C367.209946,20.925 366.432478,21.5625 365.645642,22.1625 C364.858807,22.7625 364.053237,23.34375 363.228933,23.90625 C362.40463,24.46875 361.524123,25.03125 360.587415,25.59375 C361.336782,25.6125 362.083807,25.6195312 362.82849,25.6148437 L363.943759,25.5990234 L365.055516,25.565625 C366.165516,25.5234375 367.301861,25.4654297 368.464551,25.3916016 L369.636022,25.3125 L375.256275,24.8625 L376.236447,24.1155 C377.531354,23.1135 378.778301,22.0875 379.977288,21.0375 C380.976444,20.1625 381.958948,19.2875 382.924798,18.4125 L384.361085,17.1 L387.508427,20.7 Z M146.528029,25.25625 L146.528029,29.30625 L137.535623,29.30625 L136.186763,34.70625 L145.966003,34.70625 L145.909801,39.0375 L145.709077,39.8955995 C145.291573,41.5922832 144.777721,43.171875 144.167522,44.634375 C143.455623,46.340625 142.593851,47.8875 141.582206,49.275 L142.405011,49.887 C142.800677,50.184 143.172737,50.4675 143.521193,50.7375 C143.956763,51.075 144.355449,51.4019531 144.717253,51.7183594 L145.066763,52.03125 L142.425244,55.63125 L142.008116,55.2893555 C141.15454,54.5967773 140.185046,53.8514648 139.099635,53.053418 L138.547269,52.65 L138.111972,53.0230263 C135.592355,55.1368421 132.172874,57.2506579 127.853531,59.3644737 L127.081953,59.7375 L124.777649,55.63125 L125.478546,55.3242902 C129.629749,53.4881406 132.805737,51.7529605 135.00651,50.11875 L133.848049,49.3128827 C132.907517,48.666199 132.029114,48.0816964 131.212839,47.559375 L130.267719,46.9624362 C129.508793,46.4898597 128.821555,46.0794643 128.206003,45.73125 C128.618155,44.75625 129.02094,43.6875 129.414358,42.525 C129.729092,41.595 130.049821,40.617 130.376545,39.591 L130.622712,38.8125 L126.35132,38.8125 L126.35132,34.70625 L131.802965,34.70625 L132.008456,33.9574219 C132.408899,32.4808594 132.746114,31.1308594 133.020101,29.9074219 L133.151826,29.30625 L127.643978,29.30625 L127.643978,25.25625 L146.528029,25.25625 Z M294.581555,37.51875 L298.796745,38.475 L298.708051,39.0058594 L298.504316,40.1308594 C298.319902,41.1035156 298.098897,42.1640625 297.841302,43.3125 C297.42915,45.15 296.923328,47.175 296.323834,49.3875 L295.916998,50.8846453 C294.974973,54.2889706 294.083771,57.070199 293.243391,59.2283304 L293.064087,59.68125 L288.848897,58.1625 L289.046045,57.6878906 C289.507081,56.5558594 289.97529,55.2515625 290.450669,53.775 C290.926049,52.2984375 291.422944,50.6208984 291.941354,48.7423828 L292.164846,47.925 C292.76434,45.7125 293.242062,43.771875 293.598011,42.103125 L294.581555,37.51875 Z M336.396239,9 L336.396239,53.325 L336.391118,53.7225 C336.343325,55.5425 335.960982,56.8725 335.244087,57.7125 C334.475986,58.6125 333.08029,59.15625 331.056998,59.34375 L330.182737,59.41875 C330.0287,59.43125 329.870501,59.44375 329.708138,59.45625 C329.221049,59.49375 328.724593,59.521875 328.218771,59.540625 C327.881555,59.553125 327.55683,59.5614583 327.244593,59.565625 L326.785606,59.56875 L325.661555,59.56875 L324.818517,54.675 L325.093285,54.7101562 C325.476295,54.7539062 325.925915,54.7851562 326.442146,54.8039062 L327.322902,54.82575 L327.322902,54.82575 L328.60432,54.842625 L329.304397,54.842602 L329.896244,54.8334184 C330.263281,54.8242347 330.575262,54.8089286 330.832188,54.7875 C331.281809,54.75 331.609657,54.61875 331.815733,54.39375 C332.021809,54.16875 332.143581,53.821875 332.181049,53.353125 C332.212273,52.9625 332.230486,52.4611979 332.23569,51.8492187 L332.237252,9 L336.396239,9 Z M381.101339,44.15625 L381.559301,44.4023437 C382.647347,44.9929687 383.871655,45.6984375 385.232225,46.51875 C386.787161,47.45625 388.342098,48.43125 389.897035,49.44375 C391.451971,50.45625 392.913237,51.440625 394.280832,52.396875 L395.557879,53.3 C396.217044,53.7722222 396.792368,54.1952546 397.283851,54.5690972 L397.56868,54.7875 L394.758554,58.89375 C392.810199,57.16875 390.149946,55.25625 386.777794,53.15625 L385.36929,52.25625 C384.226123,51.5330357 383.159422,50.8767857 382.169187,50.2875 C380.980905,49.5803571 379.902734,48.9834184 378.934674,48.4966837 L378.45982,48.2625 L381.101339,44.15625 Z M361.037035,43.81875 L364.184377,47.5875 L363.49983,48.17475 C362.573612,48.96075 361.59344,49.75875 360.559313,50.56875 C359.525187,51.37875 358.437106,52.18875 357.29507,52.99875 L356.428427,53.60625 C355.00463,54.61875 353.618301,55.565625 352.26944,56.446875 C351.190351,57.151875 350.147232,57.814875 349.140083,58.435875 L348.391465,58.89375 L345.468933,54.84375 L345.958698,54.5929209 C346.954286,54.0717474 348.046221,53.4334821 349.234503,52.678125 C350.620832,51.796875 352.016528,50.85 353.421592,49.8375 C354.826655,48.825 356.19425,47.79375 357.524377,46.74375 C358.664485,45.84375 359.687601,44.998852 360.593723,44.2090561 L361.037035,43.81875 Z M274.212152,32.45625 L278.764557,33.69375 L278.553017,34.4539062 C278.191343,35.7377604 277.784135,37.10625 277.331392,38.559375 C276.788101,40.303125 276.216709,42.046875 275.617215,43.790625 C275.017722,45.534375 274.399494,47.25 273.762532,48.9375 L273.138059,50.575 C272.832068,51.36875 272.535443,52.125 272.248186,52.84375 L271.964051,53.55 L281.687089,53.55 L281.687089,58.10625 L247.234937,58.10625 L247.234937,53.55 L266.962025,53.55 L267.175419,53.0608887 C267.679486,51.8939941 268.226582,50.5476562 268.816709,49.021875 C269.491139,47.278125 270.156203,45.45 270.811899,43.5375 C271.467595,41.625 272.09519,39.703125 272.694684,37.771875 C273.208535,36.1165179 273.653568,34.5782526 274.02978,33.1570791 L274.212152,32.45625 Z M421.703653,48.2625 L422.378084,53.325 L421.851615,53.4707908 C420.953139,53.7156888 419.949523,53.9701531 418.840765,54.2341837 L418.162894,54.39375 C416.781917,54.7151786 415.249538,55.0503827 413.565756,55.3993622 L410.533839,56.015332 C409.61001,56.2004883 408.744725,56.371582 407.937985,56.5286133 L406.054689,56.8871173 C405.224268,57.0401786 404.451961,57.1748724 403.737769,57.291199 L403.21302,57.375 L402.369983,52.3125 L402.88155,52.249 C405.313163,51.9363333 408.364919,51.395 412.036818,50.625 C413.771068,50.2392857 415.353914,49.8742347 416.785358,49.5298469 L417.488464,49.359375 C418.86944,49.021875 420.099014,48.7050383 421.177185,48.4088648 L421.703653,48.2625 Z M39.6950444,42.6375 L39.6950444,54.45 L17.2702343,54.45 L17.2702343,42.6375 L39.6950444,42.6375 Z M250.213671,33.91875 L254.147848,32.56875 L254.290989,32.9466797 C254.631131,33.8572266 255.014304,34.96875 255.440506,36.28125 C255.927595,37.78125 256.405316,39.3375 256.873671,40.95 C257.342025,42.5625 257.782278,44.1375 258.19443,45.675 L258.575359,47.125 C258.769639,47.8819444 258.935009,48.5578704 259.071467,49.1527778 L259.149873,49.5 L254.934684,50.85 C254.709873,49.725 254.428861,48.478125 254.091646,47.109375 C253.75443,45.740625 253.379747,44.315625 252.967595,42.834375 C252.555443,41.353125 252.11519,39.853125 251.646835,38.334375 C251.29557,37.1953125 250.939035,36.0826172 250.577231,34.9962891 L250.213671,33.91875 Z M35.0864368,46.35 L21.8788419,46.35 L21.8788419,50.7375 L35.0864368,50.7375 L35.0864368,46.35 Z M259.992911,33.3 L264.039494,31.95 L264.186308,32.3804847 C264.484526,33.2667092 264.810271,34.3044643 265.163544,35.49375 C265.575696,36.88125 265.987848,38.296875 266.4,39.740625 C266.812152,41.184375 267.196203,42.590625 267.552152,43.959375 L268.036899,45.8507812 L268.036899,45.8507812 L268.423291,47.41875 L264.264304,48.7125 L264.055552,47.8033163 C263.86821,47.0112245 263.647414,46.1330357 263.393165,45.16875 L262.297215,41.00625 L262.297215,41.00625 C261.922532,39.58125 261.529114,38.19375 261.116962,36.84375 L260.607698,35.2010204 C260.499117,34.8566327 260.393593,34.5260204 260.291129,34.2091837 L259.992911,33.3 Z M328.078264,14.00625 L328.078264,47.025 L324.256492,47.025 L324.256492,14.00625 L328.078264,14.00625 Z M141.807016,38.8125 L135.00651,38.8125 L134.860849,39.3137574 L134.552277,40.3427124 C134.098919,41.8195988 133.688305,42.997028 133.320434,43.875 L135.540434,45.196875 L135.540434,45.196875 C136.214864,45.601875 136.931259,46.060875 137.689618,46.573875 L138.266256,46.96875 L138.561757,46.5475 C139.823858,44.6841667 140.846744,42.3279167 141.630415,39.47875 L141.807016,38.8125 Z M319.9851,11.41875 L319.9851,45.225 L316.107125,45.225 L316.107125,15.80625 L305.934467,15.80625 L305.934467,45.45 L302.056492,45.45 L302.056492,11.41875 L319.9851,11.41875 Z M421.197831,42.13125 L419.097261,42.5443359 C417.003717,42.9486328 414.931248,43.3265625 412.879856,43.678125 C410.828464,44.0296875 408.766533,44.3443359 406.694065,44.6220703 L404.618084,44.8875 L403.887451,40.1625 L404.183295,40.1140625 C404.669863,40.0151042 405.123907,39.825 405.545426,39.54375 C406.051248,39.20625 406.491502,38.775 406.866185,38.25 L407.449286,37.4220703 C407.952767,36.6984375 408.500157,35.8905762 409.091454,34.9984863 L409.451502,34.453125 C410.209195,33.3010417 411.034886,31.9844907 411.928576,30.5034722 L412.711248,29.19375 L412.823653,28.96875 L412.867366,28.89375 L412.923569,28.81875 L412.923569,28.81875 L412.992261,28.74375 L412.467704,28.8125 C412.117999,28.8541667 411.768295,28.8875 411.41859,28.9125 L409.788717,29.025 L409.788717,29.025 L408.273496,29.151 C407.787907,29.19 407.3218,29.226 406.875177,29.259 L405.198843,29.375 C404.711755,29.40625 404.259793,29.4328125 403.842957,29.4546875 L403.437831,29.475 L402.594793,24.91875 L402.896038,24.845625 C403.279714,24.740625 403.591451,24.605625 403.831248,24.440625 C404.130995,24.234375 404.449476,23.90625 404.786691,23.45625 C405.212894,22.8984375 405.682127,22.1755371 406.194389,21.2875488 L406.416565,20.896875 C407.016058,19.828125 407.727957,18.50625 408.552261,16.93125 C410.069729,14.02875 411.344403,11.2933125 412.376281,8.7249375 L412.711248,7.875 L417.095046,9.5625 L416.760641,10.33425 C415.732134,12.66975 414.476008,15.1875 412.992261,17.8875 C411.488531,20.7225 410.131677,22.9205 408.921699,24.4815 L408.664666,24.80625 L409.162683,24.784375 C410.010925,24.7427083 410.950236,24.675 411.980615,24.58125 C413.217071,24.46875 414.37859,24.3375 415.465172,24.1875 L417.095046,21.0375 L417.095046,21.0375 C417.44475,20.3625 417.777802,19.6958333 418.094202,19.0375 L418.556312,18.05625 L422.715299,20.025 L422.254438,20.998125 C421.62497,22.303125 420.935552,23.638125 420.186185,25.003125 L419.224497,26.74375 C418.56672,27.9270833 417.875637,29.15625 417.151248,30.43125 L416.350362,31.8234375 C415.563527,33.1734375 414.818843,34.396875 414.116312,35.49375 L413.336358,36.7014031 C412.831682,37.4758929 412.357593,38.1891582 411.91409,38.841199 L411.587198,39.31875 L412.652798,39.137625 C414.055613,38.894625 415.386489,38.645625 416.645426,38.390625 C417.904362,38.135625 419.10335,37.862625 420.242388,37.571625 L421.085426,37.35 L421.197831,42.13125 Z M197.921229,27.675 L201.911609,28.74375 L201.757052,29.2984375 C201.491651,30.2411458 201.187221,31.275 200.843761,32.4 C200.431609,33.75 199.991356,35.109375 199.523002,36.478125 C199.054647,37.846875 198.558191,39.159375 198.033635,40.415625 C197.584014,41.4924107 197.148158,42.4383291 196.726065,43.2533801 L196.516166,43.65 L192.806799,42.075 L193.307938,40.9398437 C194.135364,39.0309896 194.923761,37.0375 195.673128,34.959375 C196.443906,32.821875 197.104572,30.7325893 197.655128,28.6915179 L197.921229,27.675 Z M79.6791314,19.40625 L79.2763466,20.128125 C78.5894268,21.346875 77.8244479,22.64375 76.9814099,24.01875 C76.1383719,25.39375 75.2172749,26.846875 74.2181187,28.378125 L73.609258,29.30625 C71.281812,32.8709559 69.2530756,35.7048659 67.5230489,37.8079801 L67.2021694,38.19375 L68.4049036,38.05425 C69.9935618,37.86225 71.5222706,37.64625 72.9910301,37.40625 C74.4597896,37.16625 75.8805896,36.90225 77.2534301,36.61425 L78.2740681,36.39375 L78.4988782,40.78125 L75.5857137,41.296875 C73.6498487,41.634375 71.7264732,41.959375 69.8155871,42.271875 C67.6658403,42.6234375 65.5002865,42.9486328 63.3189257,43.2474609 L61.132296,43.5375 L60.4016631,38.75625 L60.6901401,38.7188965 C61.3478854,38.6102051 61.8980555,38.3507812 62.3406504,37.940625 C62.7621694,37.55 63.2032031,37.0617187 63.6637517,36.4757812 L63.9424225,36.1125 C64.6293424,35.20625 65.3552917,34.2153646 66.1202706,33.1398437 L66.5839415,32.484375 C67.3645322,31.375 68.1841525,30.1679687 69.0428023,28.8632812 L69.5626757,28.06875 L66.5839415,28.35 L65.92122,28.4039062 C65.0532031,28.4726562 64.2476335,28.5289062 63.5045112,28.5726562 L60.6298453,28.720125 L60.6298453,28.720125 L60.1206504,28.74375 L59.5024225,24.3 L59.8115365,24.1470703 C60.1206504,23.9818359 60.4297643,23.7796875 60.7388782,23.540625 C61.0685998,23.285625 61.3743415,22.988625 61.6561036,22.649625 L61.8629289,22.3875 C62.9869795,21 64.3733086,18.84375 66.0219162,15.91875 C67.4873452,13.41875 68.7603441,11.0224537 69.8409129,8.72986111 L70.2371061,7.875 L74.1712833,9.5625 L73.7111251,10.4976562 C73.2404289,11.4398437 72.7381187,12.403125 72.2041947,13.3875 C71.492296,14.7 70.7241947,16.05 69.8998909,17.4375 C69.0755871,18.825 68.2981187,20.08125 67.5674858,21.20625 C66.9829795,22.10625 66.4044681,22.93425 65.8319517,23.69025 L65.4036884,24.24375 L66.3204922,24.2138672 L68.0908719,24.1435547 C68.3789099,24.1306641 68.6634352,24.1171875 68.9444479,24.103125 C70.0684985,24.046875 71.1925491,23.94375 72.3165998,23.79375 C72.9910301,22.66875 73.6279922,21.58125 74.2274858,20.53125 C74.6271483,19.83125 75.0101581,19.13125 75.3765154,18.43125 L75.9135618,17.38125 L79.6791314,19.40625 Z M100.923688,15.58125 L88.4467263,15.58125 L88.3343213,18.45 L88.3343213,18.45 L88.2406504,21.3484375 C88.2344057,21.5598958 88.2281609,21.775 88.2219162,21.99375 C89.0836884,25.93125 90.1421694,29.49375 91.3973593,32.68125 C92.6525491,35.86875 94.123182,38.7 95.809258,41.175 C96.0715365,41.5875 96.3244479,41.9625 96.5679922,42.3 C96.730355,42.525 96.9052074,42.7583333 97.0925491,43 L97.3829289,43.36875 L97.9093885,42.6445312 C99.1203774,40.9382812 100.209448,39.1171875 101.1766,37.18125 C102.143752,35.2453125 103.017672,33.1658203 103.79836,30.9427734 L104.127233,29.98125 L96.4836884,29.98125 L96.4836884,26.04375 L96.9917593,24.971625 C97.6571972,23.552625 98.2746757,22.175625 98.8441947,20.840625 C99.4137137,19.505625 99.9712428,18.116625 100.516782,16.673625 L100.923688,15.58125 Z M188.647812,29.19375 L182.072116,29.19375 L182.072116,36.421875 L182.065871,36.925 L182.047137,37.421875 L182.047137,37.421875 L182.015913,37.9125 L188.647812,37.9125 L188.647812,29.19375 Z M290.310163,21.7125 L290.635669,21.928125 C291.189889,22.303125 291.802652,22.75625 292.47396,23.2875 L293.307631,23.9625 C293.882146,24.4375 294.494129,24.9625 295.143581,25.5375 L296.08029,26.375 C296.679783,26.9166667 297.229319,27.425 297.728897,27.9 C298.228475,28.375 298.678095,28.8166667 299.077758,29.225 L299.639783,29.8125 L296.661049,33.46875 L295.986619,32.75775 C295.626922,32.38425 295.233505,31.98375 294.806365,31.55625 C294.094467,30.84375 293.251429,30.05625 292.277252,29.19375 L291.435211,28.4109098 C290.069501,27.1572115 288.892241,26.1586908 287.903431,25.4153476 L287.612441,25.2 L290.310163,21.7125 Z M45.5963102,20.30625 L45.5963102,31.275 L11.3689685,31.275 L11.3689685,20.30625 L45.5963102,20.30625 Z M266.62481,8.04375 L267.048491,8.90347633 C268.777799,12.3197485 270.922142,15.4644231 273.481519,18.3375 C276.05613,21.2276786 279.131498,23.9400191 282.707623,26.4745217 L283.541772,27.05625 L280.675443,30.825 C279.813671,30.225 278.998734,29.625 278.230633,29.025 C277.718565,28.625 277.210661,28.2166667 276.70692,27.8 L275.95443,27.16875 L275.95443,30.6 L253.248608,30.6 L253.248608,27.05625 L252.324778,27.8332031 C251.711234,28.3441406 251.102373,28.8410156 250.498196,29.3238281 L249.595443,30.0375 L246.391899,26.325 L247.246576,25.6992604 C250.625379,23.1856509 253.525297,20.5442308 255.946329,17.775 C258.367361,15.0057692 260.389322,12.0288462 262.012212,8.84423077 L262.40962,8.04375 L266.62481,8.04375 Z M40.7628925,23.79375 L16.1461836,23.79375 L16.1461836,27.84375 L40.7628925,27.84375 L40.7628925,23.79375 Z M264.545316,13.275 L264.159878,13.9878472 C263.103363,15.8896991 261.817412,17.7989583 260.302025,19.715625 C258.786639,21.6322917 257.056618,23.5119213 255.111964,25.3545139 L254.372658,26.04375 L274.717975,26.04375 C272.507342,24.01875 270.568354,21.946875 268.901013,19.828125 C267.442089,17.9742187 266.148113,16.0700684 265.019086,14.1156738 L264.545316,13.275 Z M188.647812,15.75 L182.072116,15.75 L182.072116,24.80625 L188.647812,24.80625 L188.647812,15.75 Z M289.748138,12.15 L292.502062,8.775 L292.799857,8.9984375 C293.817227,9.76927083 295.081784,10.8005208 296.593528,12.0921875 L297.953707,13.253125 C298.528222,13.7489583 299.052779,14.215625 299.527378,14.653125 L300.336695,15.409125 C300.464087,15.529875 300.587733,15.648 300.707631,15.7635 L301.382062,16.425 L298.515733,19.96875 C298.028644,19.44375 297.438517,18.853125 296.745353,18.196875 C296.052188,17.540625 295.237252,16.8 294.300543,15.975 C293.401302,15.15 292.567631,14.41875 291.79953,13.78125 L291.05953,13.175 C290.703581,12.8875 290.368707,12.6234375 290.05491,12.3828125 L289.748138,12.15 Z M29.1289685,7.7625 L29.2436216,8.020125 L29.4864166,8.596125 C29.5283811,8.698875 29.571095,8.805 29.6145583,8.9145 L29.7471963,9.253125 C29.9270444,9.718125 30.1188824,10.237125 30.3227102,10.810125 L30.4778292,11.25 L30.9274495,12.9375 L53.5770697,12.9375 L53.5770697,16.7625 L3.38820896,16.7625 L3.38820896,12.9375 L26.0940317,12.9375 L26.0284621,12.7875 L25.9816267,12.6375 L25.9816267,12.6375 L25.9535254,12.4875 C25.9347912,12.3375 25.8879558,12.16875 25.8130191,11.98125 C25.6256773,11.26875 25.4383355,10.65 25.2509938,10.125 C25.1104874,9.73125 24.9699811,9.36914062 24.8294748,9.03867187 L24.6889685,8.71875 L29.1289685,7.7625 Z" id="形状" stroke="#2D2D30" stroke-width="1" fill="#2D2D30" fill-rule="nonzero"></path>
            </g>
            <g id="03-logo/御界/01_蓝色/yujie_blue_64" fill="#1552CD" fill-rule="evenodd">
                <path d="M44.8238338,-1.16232707e-13 L45.903685,-1.16232707e-13 C48.4739883,0.042977861 58.2519629,0.405639254 67.6061241,3.39781988 C72.2787904,4.90331285 76.7741752,6.90670513 81.0139653,9.37309597 C83.1844303,10.6324939 85.2128379,12.1197845 87.0643914,13.8094537 L87.0973919,14.4883045 C87.1641728,16.5733652 87.1408215,23.4001387 84.7560513,34.1170453 C83.0984006,41.2718816 80.6597049,48.2237115 77.4842496,54.8489961 L76.5182074,56.8203448 C75.2088745,59.4155403 70.4480254,68.3857028 63.8762998,75.350803 C58.3619381,81.1804736 51.9703052,86.1224946 44.9301463,90 L44.0895373,89.5323615 C41.4381783,88.0169265 33.013276,82.8923772 26.0246963,75.2445024 C18.2465239,66.7329824 12.7759813,55.9776232 12.7759813,55.9776232 C9.31585257,48.9112043 6.69923142,41.4662372 4.97952946,33.7946916 C3.52232075,27.320509 2.79486367,20.7050004 2.81012658,14.0705858 L3.08651043,13.7691985 C3.7878859,13.0537149 5.96037574,11.0927294 11.1061772,8.19129582 C13.7172476,6.76115405 16.4240351,5.51227576 19.2071464,4.45337931 L20.4045247,4.01122351 C29.9637871,0.435443607 42.3740956,0.0429140547 44.8238338,-1.16232707e-13 Z M79.5750666,19.7022984 L79.1590791,19.9504071 C78.3160902,20.467301 77.4912349,21.0121517 76.6895036,21.5960516 C72.2197026,23.9793726 68.1125242,26.9318242 64.4518556,30.1465644 C57.0455185,36.3982152 50.699181,43.5293191 45.4155143,51.297833 C41.1070397,57.7337021 37.3770961,64.4605725 34.2778586,71.4509061 C37.6214837,74.6809603 41.2786408,77.578076 45.1973604,80.0995605 C49.6973927,77.2448073 53.8499661,73.8829117 57.57236,70.0808436 C63.4741872,64.0096571 67.9899659,55.7906428 67.9899659,55.7906428 C70.7964413,50.7880953 73.159861,45.5528086 75.0535537,40.1438632 C77.2118547,33.4862515 78.7255015,26.6413618 79.5750666,19.7022984 Z M79.8622272,17.0985615 L79.7889424,17.0549227 L79.7889424,17.0549227 L79.656673,17.0680508 C78.3678318,17.1955356 77.0805156,17.3482163 75.7830112,17.5458087 C70.7955249,18.0670402 65.8039429,19.0934421 60.8258858,20.6959976 C51.7060233,23.2400102 42.8978294,27.1700758 34.5376049,32.3966994 C28.4238114,36.084761 22.5340195,40.3747961 17.0698567,45.1441929 C18.3953437,48.4260646 19.9241922,51.6229796 21.6473849,54.7181108 L22.5176332,56.2441827 C22.9606344,56.9976473 24.0649494,58.8304893 25.6116398,61.0849813 C33.897916,48.0276062 44.3869228,36.6551052 56.2934236,28.7964835 C63.4209158,24.1394835 71.7217459,19.9563077 79.8275933,17.4376642 L79.8622272,17.0985615 Z M45.5937507,7.64521488 C39.4174788,7.72607885 33.2747889,8.5626344 27.3046066,10.1359616 L26.1499775,10.4526959 C15.9355973,13.3366989 10.5155551,17.0658775 10.5155551,17.0658775 L10.6868548,18.6295792 C10.9893325,21.1628353 11.7250006,26.495766 13.147455,32.5555139 C25.6794628,24.6544491 39.3429047,19.1570412 52.8978882,16.8321365 L54.0271925,16.6457547 C61.4036746,15.3906073 69.0391534,15.1130791 76.685971,15.3250582 C72.6421983,13.2095572 68.3805289,11.5252348 63.9723315,10.300868 C57.9816703,8.65776523 51.8075072,7.76561605 45.5937507,7.64521488 Z" id="形状"></path>
            </g>
        </g>
    </g>
</svg>