<svg id="图层_1" data-name="图层 1" xmlns="http://www.w3.org/2000/svg" viewBox="0 0 150 50"><defs><style>.cls-1,.cls-2{fill:#54576a;}.cls-1{fill-rule:evenodd;}.cls-3{fill:#2662ee;}</style></defs><title>未标题-2</title><path class="cls-1" d="M145.06729,21.55926a39.14184,39.14184,0,0,1-3.458-1.90164h2.686a2.20081,2.20081,0,0,0,2.25346-2.31179V9.50729H129.76161V19.65762h5.54613a47.52947,47.52947,0,0,1-7.8245,3.44614l0,2.3908a39.00668,39.00668,0,0,0,5.59543-2.14464v.57926c0,2.4568-.79563,3.57571-3.5803,4.77027v2.27792a6.9538,6.9538,0,0,0,6.04525-6.58015v-2.2513a29.95043,29.95043,0,0,0,2.9981-1.73722c.515.34739,1.03082.68831,1.56673,1.01387q.56564.34366,1.13422.67026v8.971h2.62107V23.48c.25688.12485.51259.25095.774.37078a39.16333,39.16333,0,0,0,4.4635,1.72474V23.18474A36.58658,36.58658,0,0,1,145.06729,21.55926Zm-1.93619-3.85365h-3.60958V15.36325h5.07518V16.4316A1.47078,1.47078,0,0,1,143.1311,17.70561Zm1.4656-4.29434h-5.07518v-1.952h5.07518Zm-7.41754-1.952v1.952H132.104v-1.952Zm-5.07515,3.904h5.07515v2.34236H132.104Z"/><path class="cls-1" d="M109.86418,9.706h-1.88669l-.03048.0857a9.60512,9.60512,0,0,1-.43568,1.02591,9.29324,9.29324,0,0,1-2.31366,2.9551c-.13355.11314-.27047.22155-.40945.3275l1.21248,1.59054C108.588,13.46057,109.73836,11.32135,109.86418,9.706Z"/><path class="cls-1" d="M110.22455,15.86577l-1.92979-.62093a18.02552,18.02552,0,0,1-4.12135,5.295l1.21837,1.5016c.19058-.13927.76537-.66919.948-.8174.14073-.1143.27508-.23568.41083-.35557v9.95486H108.845V18.49985a11.90608,11.90608,0,0,0,1.37958-2.63408Z"/><path class="cls-1" d="M116.29128,26.39228l.00042-3.12055h2.335V21.3666H116.292l.00038-2.86067h2.33438V16.60077h-2.33415l.00045-3.33444h2.3337V11.16121H113.663c.02064-.0648.04584-.12808.06528-.19327a11.58319,11.58319,0,0,0,.30718-1.30828H112.049c-.00537.02973-.144.4661-.25315.81993a9.25257,9.25257,0,0,1-1.7983,3.27519c-.11307.13261-.23015.26111-.34966.38758l1.4467,1.36789c.14361-.15166.28386-.30582.419-.46457a11.27832,11.27832,0,0,0,.872-1.17032c.1287-.19858.24859-.40272.36454-.609H114.1v3.33444h-3.145v1.90516H114.1v8.52058l-.96541.27942V20.82141h-2.08575v7.08817l-1.21109.35053.52775,1.82345,8.61906-2.49458-.52775-1.82345Z"/><path class="cls-1" d="M119.599,30.927h2.03576V12.27754h1.93179V24.51c0,.38263-.11232.49058-.37709.49058h-1.07479v2.02493h1.46815a1.8907,1.8907,0,0,0,1.99381-2.22829V10.18574H119.599Z"/><path class="cls-1" d="M101.31338,27.13408a12.43841,12.43841,0,0,1-.88786-4.5354v-.0065l-.00566-12.86833h-12.724v2.12066h3.181v6.362H87.1657v2.12066h3.71117V30.9281h2.33272V20.32717h4.02928V18.20651H93.20959v-6.362H98.2992V22.19293l.00143.00029c-.00143.10453-.00143.20987-.00143.316,0,3.80794,1.58838,7.05864,3.81719,8.31457l2.04434-5.62691q-.94586-.34405-1.89307-.68809Z"/><path class="cls-1" d="M85.57522,26.90464V16.08582H81.33388v2.12069h2.12065V30.989l5.91171-4.15814-1.22009-1.73454Z"/><path class="cls-1" d="M87.38485,13.21538,83.67368,9.50421l-1.49931,1.4996L85.88554,14.715Z"/><rect class="cls-2" x="65.95906" y="25.76136" width="9.54299" height="1.8556"/><path class="cls-1" d="M59.06687,9.72385V25.58013l-.00068.06729a11.05783,11.05783,0,0,1-.60653,3.54611q-.05406.15552-.11239.3097c-.08625.22711-.17884.45224-.26861.678l1.87041.7483.19793-.49544.02828-.071a13.0783,13.0783,0,0,0,.90623-4.78007V23.37561h2.27973v5.48314l-.00213.0164a.04911.04911,0,0,1-.01343.02262.05371.05371,0,0,1-.02332.014.07571.07571,0,0,1-.02051.00182h-1.054v2.01464h1.0667a2.117,2.117,0,0,0,.704-.12569A2.07026,2.07026,0,0,0,65.267,29.52322a2.21044,2.21044,0,0,0,.10886-.6613l-.00068-.06574q0-8.48331.00068-16.95167V9.72385h-6.309ZM61.08151,21.52V17.54379h2.27973V21.52Zm2.27973-9.67553v3.84371H61.08151V11.84451Z"/><path class="cls-1" d="M78.03908,17.80017a9.332,9.332,0,0,1-1.21378-.78653h2.38789V15.158H72.3276a11.2658,11.2658,0,0,0,.478-1.2459h6.40756V11.89753H76.72443l.50029-1.868q-.9723-.26064-1.94606-.52141l-.63995,2.38937H73.234c.012-.09935.03342-.19738.0428-.297.0339-.358.04946-.717.0516-1.07663V9.51178H71.31373v1.00249c-.00143.29932-.01414.59812-.04242.89614-.01546.16341-.04623.32478-.07033.48712H70.00267q-.32008-1.19464-.63995-2.38937l-1.946.52141.50028,1.868H66.48921v2.01461h4.18318a9.31114,9.31114,0,0,1-.59864,1.2459H66.48921v1.8556h2.18093A8.94831,8.94831,0,0,1,66.714,18.56151c-.19369.11423-.39162.22041-.59239.32119-.07564.03727-.152.07373-.22831.10951-.07849.03584-.15694.07091-.2361.10534l.80442,1.84715c.28133-.12258.55846-.25412.82989-.39812.17328-.092.33843-.19809.50669-.29893h7.7061l-.29159,2.33272H69.23522l.52122-1.565q-.89173-.25491-1.78416-.50973L66.84973,24.435l1.76013.023.00735-.02206h7.94517V27.743l-.00071.03294-.00071.02623a1.14781,1.14781,0,0,1-.06079.30485,1.06845,1.06845,0,0,1-.61711.6317,1.09314,1.09314,0,0,1-.35487.07069c-1.06952.01362-2.13832.00042-3.20713.00042v2.12066h3.18733c.10324-.00126.205-.0053.30751-.01546a3.18135,3.18135,0,0,0,2.68053-2.093,3.1349,3.1349,0,0,0,.16186-.68087,3.50243,3.50243,0,0,0,.02475-.38512V22.44783H77.09952l.37563-3.005c.23928.11385.48221.22236.73073.32161.18945.07561.38172.14607.57612.21356l.79171-1.50769c-.16188-.05633-.32232-.115-.48068-.1781A10.08938,10.08938,0,0,1,78.03908,17.80017Zm-3.917-.78653c.1243.13471.2518.26758.38541.3966a10.53851,10.53851,0,0,0,1.18168.98181H70.14563a11.40829,11.40829,0,0,0,1.08751-1.30568c.01679-.02359.03077-.049.04736-.07273Zm3.10267,2.336v-.03274c.02886.01456.05762.02925.08667.04358Z"/><path class="cls-2" d="M62.36424,36.20162l.67084-.14908q.11181.41074.26089.89446h3.98781v.59631H58.4137V36.947h4.13688q-.03726-.11181-.1118-.44723A2.58053,2.58053,0,0,0,62.36424,36.20162Zm-2.79519,8.60919H58.8982V40.63665H66.762v3.01881q.07453,1.08081-1.08081,1.08081H64.48858a5.553,5.553,0,0,0-.1118-.559.29118.29118,0,0,1-.03727-.11181h1.15534q.67084.0365.59631-.4845V41.19569H59.56905Zm.33542-6.67119h5.85127v1.90073H59.90447Zm.70811.5963v.74539h4.47231v-.74539Zm.18635,3.05608h4.09962v1.97527H60.79893Zm.67085.559v.85719H64.2277V42.351Z"/><path class="cls-2" d="M69.84707,43.02189c.24743-.0497.63358-.11181,1.15535-.18635q1.30441-.26012,1.90073-.37269a4.57726,4.57726,0,0,0-.03727.63357q-.4845.11181-1.528.33543c-.62115.12475-1.057.21119-1.30442.26088Zm1.26715-2.01254q.93018-.1483,1.938-.26089a2.48038,2.48038,0,0,1-.03727.29816,1.00009,1.00009,0,0,1-.03726.29815q-.78265.11181-2.01254.26088a5.55546,5.55546,0,0,0-.559.11181l-.29815-.59631a1.48411,1.48411,0,0,0,.44723-.37269,12.10141,12.10141,0,0,0,1.00627-1.379h-.44724a3.99,3.99,0,0,1-.44723.03727,1.61432,1.61432,0,0,0-.26088.03727.841.841,0,0,0-.26089.03727l-.22361-.559a2.73831,2.73831,0,0,0,.4845-.559,15.46746,15.46746,0,0,0,1.34169-2.31069l.63358.26088A28.38536,28.38536,0,0,1,70.7788,38.885a3.42074,3.42074,0,0,1,.59631-.03727,5.36418,5.36418,0,0,1,.559-.03727q.37113-.559.70811-1.19261l.59631.33542Q72.53045,39.10862,71.11422,41.00935Zm.969,3.317A5.58876,5.58876,0,0,0,73.574,41.71746a19.53875,19.53875,0,0,0,.29816-4.4723h-.78266v-.63358h4.50958v.67084l-.89446,1.8262h1.49077v.63357a10.56223,10.56223,0,0,1-1.41623,2.907,8.62844,8.62844,0,0,0,2.12434,1.4535,4.44286,4.44286,0,0,0-.559.67085,15.01054,15.01054,0,0,1-2.01253-1.56531A10.03131,10.03131,0,0,1,74.133,44.88535a3.15958,3.15958,0,0,1-.22361-.26089c-.12527-.14907-.22362-.26088-.29816-.33542a7.6603,7.6603,0,0,0,2.23616-1.63985,7.56072,7.56072,0,0,1-1.3417-2.60884,7.30345,7.30345,0,0,1-1.86346,4.80773c-.05072-.05021-.13665-.13666-.26088-.26089A3.52141,3.52141,0,0,1,72.08322,44.32631Zm3.876-5.255.8572-1.82619H74.58026c0,.14907-.01346.37269-.03727.67084v.559a10.39907,10.39907,0,0,0,1.75166,3.61511,7.10665,7.10665,0,0,0,1.15534-2.348H75.95922Z"/><path class="cls-2" d="M86.08714,44.25177a9.48946,9.48946,0,0,0,1.60257-1.71438,26.20634,26.20634,0,0,1-.67084-4.47231H83.03106v1.67711a15.29345,15.29345,0,0,1-.22362,3.05608,5.76432,5.76432,0,0,1-.85719,2.04981q-.26088-.29894-.4845-.52177a4.57454,4.57454,0,0,0,.70812-1.75166,14.23793,14.23793,0,0,0,.18634-2.68338V37.4315H86.9816q-.03728-.44723-.03727-1.34169h.67084v.63358c.02381.323.03727.559.03727.70811h1.49077a1.80255,1.80255,0,0,1-.26088-.37269c-.17393-.24794-.31161-.43429-.41-.559l.52177-.37269c.09834.12475.236.28573.41.4845.14907.17392.26088.31109.33542.41l-.559.41h1.11808v.63358H87.68971a29.1139,29.1139,0,0,0,.4845,3.65238,12.77574,12.77574,0,0,0,1.15535-2.79519l.63358.22362a14.11412,14.11412,0,0,1-1.528,3.466,3.61453,3.61453,0,0,0,.22361.74539c.04969.12475.087.22361.11181.29815q.18634.29816.41.29816c.14908-.02485.24743-.13666.29816-.33543a7.99847,7.99847,0,0,0,.29815-1.49077,5.01629,5.01629,0,0,0,.67085.26089q-.18791.93173-.3727,1.60258c-.17392.54609-.498.807-.969.78265q-.67085,0-1.19261-1.41623a14.0013,14.0013,0,0,1-1.34169,1.379C86.42256,44.58719,86.26,44.42518,86.08714,44.25177Zm-2.497-1.938q.2236-.559.44723-1.19262h-.70812v-.63357h.93173q.11181-.41.22362-.78266l.63358.14908q-.11181.33543-.22362.63358h1.938a4.28946,4.28946,0,0,1-.93173,2.38523q.29815.14907.63358.33542l-.41.59631a7.97216,7.97216,0,0,1-.70812-.44723,10.47592,10.47592,0,0,1-1.82619,1.19261,2.08308,2.08308,0,0,1-.22362-.29815c-.09938-.12475-.17392-.22362-.22361-.29815A8.95559,8.95559,0,0,0,84.82,43.02189Q84.22367,42.65,83.5901,42.31377ZM83.32921,38.885h3.3915v.63358h-3.3915Zm2.72066,2.23615h-1.379a7.4741,7.4741,0,0,1-.33543.89447c.29816.14907.62012.323.969.52177A3.42134,3.42134,0,0,0,86.04987,41.12115Z"/><path class="cls-2" d="M93.6062,36.61158h2.4225v7.193a.78869.78869,0,0,1-.89446.93173h-.74538a2.00383,2.00383,0,0,0-.11181-.63358c.29815.02433.53419.03727.70811.03727q.44724.0365.41-.41V41.75473H94.20251a6.29072,6.29072,0,0,1-.74538,3.16789q-.22362-.22362-.4845-.52177a5.39573,5.39573,0,0,0,.63357-2.86973Zm.59631.59631V38.885h1.19261V37.20789Zm0,2.27342v1.71438h1.19261V39.48131Zm2.907-.03727.559.22362a23.31272,23.31272,0,0,1-.93173,2.45976,3.3491,3.3491,0,0,0-.59631-.26088A16.38965,16.38965,0,0,0,97.10951,39.444Zm1.04354-3.317h.67084v1.67711H100.911q0,1.04355-.03727,2.04981a11.473,11.473,0,0,1,1.19262,1.379l-.52177.44723-.67085-.89446q0,.44724-.03727,1.22989,0,.858-.03727,1.22988.03727,1.528-1.22988,1.4535h-.93173a3.95348,3.95348,0,0,0-.14908-.74538,9.42311,9.42311,0,0,0,1.00627.03727q.67084.03648.63358-.78266.1118-2.38444.1118-4.77046h-1.4535v.969q-.03726,4.06235-1.938,5.51585-.2236-.22362-.52176-.4845,1.75164-1.37819,1.78892-5.03135,0-.44722.03727-.969H96.58774v-.63358H98.153Z"/><path class="cls-2" d="M104.44326,41.82927a10.2189,10.2189,0,0,0,1.41624-3.317h-1.26716V37.916h1.30442V36.08981h.67085V37.916H107.723v.59631h-1.15535v1.379l.33542-.26088q.37114.37269.969,1.04353l-.52177.44723c-.05072-.07453-.13665-.18634-.26088-.33542a5.40866,5.40866,0,0,0-.52177-.67084v4.73319h-.67085V40.07762a10.29026,10.29026,0,0,1-1.0808,2.4225Q104.66688,42.202,104.44326,41.82927Zm6.59666-5.70219a2.42891,2.42891,0,0,1-.22362.37269,6.35186,6.35186,0,0,0,2.72066,2.57158,3.6794,3.6794,0,0,0-.44723.63357,8.02708,8.02708,0,0,1-2.64612-2.60884A11.64311,11.64311,0,0,1,107.9093,39.854a2.441,2.441,0,0,0-.4845-.59631,7.81313,7.81313,0,0,0,2.86973-3.27969Zm-3.42877,7.71473h3.35423a31.7652,31.7652,0,0,0,1.00627-3.317l.74538.18634q-.4845,1.60259-1.0808,3.13062h1.63984v.63358h-5.66492Zm.37269-2.94427.59631-.18635a25.05463,25.05463,0,0,1,.70811,2.45977l-.67084.18635A22.90941,22.90941,0,0,0,107.98384,40.89754Zm.59631-1.528h3.72692v.63358h-3.72692Zm1.11808,1.15535.63357-.14908c.02381.09938.06108.23656.11181.41a14.99776,14.99776,0,0,1,.44723,2.08708l-.67085.14908Q109.99639,41.6437,109.69823,40.52485Z"/><path class="cls-2" d="M116.47191,38.58685a16.71335,16.71335,0,0,1,1.41623,1.19261l-.52177.559a11.15735,11.15735,0,0,0-1.34169-1.26715Zm.78265,2.57157a3.1569,3.1569,0,0,0,.63358.33543q-.07454.26088-.22362.85719-.4845,1.86423-.63357,2.4225l-.70812-.33542A30.69293,30.69293,0,0,0,117.25456,41.15842Zm-.37269-4.91953a8.99865,8.99865,0,0,1,.89446.81992q.33543.29893.4845.44723l-.559.52177q-.67084-.74538-1.30442-1.34169Zm2.907,1.75165h.63358v1.938a7.02878,7.02878,0,0,1-.3727,2.907l.33543-.33542q.29815.2236.969.74538.67084.559.93173.74539l-.4845.559q-.3727-.37269-1.30443-1.11807-.37269-.29815-.52177-.44723a4.56379,4.56379,0,0,1-1.90073,1.90073,2.19338,2.19338,0,0,0-.44723-.559,3.98023,3.98023,0,0,0,1.78893-1.60258,6.23334,6.23334,0,0,0,.37269-2.79519Zm-1.379-1.41623h3.3915V42.2765h-.63358V37.20789h-2.12435V42.2765h-.63357Zm5.59038-.4845h.67085v7.52838q.03726,1.08081-1.00627,1.08081-.559.0365-1.04354.03727a2.46287,2.46287,0,0,0-.11181-.70812h.41a5.1994,5.1994,0,0,0,.52177.03727q.59631.0365.559-.559Zm-.81992,6.70846h-.59631V36.79792h.59631Z"/><path class="cls-2" d="M129.99132,42.202l.59631.41a24.756,24.756,0,0,1-2.4225,1.8262q-.41-.41074-.52177-.52177A13.49408,13.49408,0,0,0,129.99132,42.202Zm3.80146-2.497q1.30443,1.08159,2.53431,2.19889l-.59631.44723q-.29815-.29815-.70812-.70812-1.49076.07531-2.45976.07454v1.90073q.03726,1.11809-1.11808,1.11808h-1.11808a3.13363,3.13363,0,0,0-.11181-.59631.29136.29136,0,0,1-.03727-.11181h.3727c.323.02433.57146.03727.74538.03727q.63359.0365.59631-.52177V41.75473q-1.528.03728-2.497.11181a8.3374,8.3374,0,0,0-1.00627.07454l-.26088-.63358a3.57332,3.57332,0,0,0,1.08081-.41,27.71828,27.71828,0,0,0,2.57157-1.30442q-.4845.03726-1.56531.07454-.52176.03726-.78265.03726a4.78231,4.78231,0,0,0-.74538.11181l-.26089-.59631a4.09,4.09,0,0,0,.81992-.37269q.63359-.37191,1.97527-1.22988.33543-.22362.52177-.33543-.559.03728-1.56531.07454-1.26714.07532-1.86346.11181a2.366,2.366,0,0,0-.14907-.67085q4.62138-.2236,7.64019-.4845l.18634.63358q-2.1616.18712-3.876.29816l.44724.29815q-1.60259.96978-2.7952,1.60258.52178-.03649,1.8262-.07454.78264-.03649,1.15534-.03727a19.56608,19.56608,0,0,0,1.82619-1.19262l.63358.4845a58.30907,58.30907,0,0,1-5.51584,2.94427q2.68338-.07453,4.69592-.18634-.18635-.18636-.63358-.559a5.50325,5.50325,0,0,1-.4845-.41Zm-.33542,2.94427.44723-.4845q.7081.4845,2.08707,1.4535a3.35977,3.35977,0,0,0,.41.26089l-.52177.559q-.14909-.11181-.41-.33543Q134.6127,43.43185,133.45736,42.64919Z"/><path class="cls-2" d="M139.15127,43.43185a1.58537,1.58537,0,0,0,.26088-.03727q1.26559-.22362,2.83246-.59631-.03726.37269-.03727.70812-1.41778.26088-2.86973.559Zm1.15534-1.938q.37114-.07455,1.22989-.18635c.34784-.04969.58285-.087.70811-.11181a2.39175,2.39175,0,0,1-.03727.33543,1.1666,1.1666,0,0,1-.03727.33542q-1.56529.22362-2.64611.41l-.18635-.63358a11.14213,11.14213,0,0,0,1.60258-1.938,8.43864,8.43864,0,0,0-1.56531.11181l-.18634-.63357a11.763,11.763,0,0,0,1.938-3.16789l.67084.26089a24.4392,24.4392,0,0,1-1.78892,2.86973c.62012,0,1.056-.01243,1.30442-.03727a5.63327,5.63327,0,0,0,.59631-1.04354l.59631.33542A26.05633,26.05633,0,0,1,140.30661,41.49385Zm1.82619-4.24869h2.72066c-.02485-.0497-.088-.1615-.18635-.33543a4.91228,4.91228,0,0,0-.33542-.63357l.63358-.29816c.17288.29816.38511.65842.63357,1.08081l-.37269.18635h2.75792V37.916H144.369l.44723.18635a16.68693,16.68693,0,0,1-1.4535,1.86346q.70656,0,2.16161-.07454.63358-.03649.969-.03727-.33542-.52176-.67084-1.00627l.559-.37269q.63357.858,1.5653,2.31069a.39648.39648,0,0,1-.14907.07454q-.33543.22362-.52177.33542c-.05073-.09886-.11181-.22361-.18635-.37269-.09938-.1734-.17392-.29815-.22361-.37269q-.44724.03726-.89447.03727v2.907c-.02484.39754.17289.58336.59631.559h.29816a.42814.42814,0,0,0,.4845-.3727,9.60024,9.60024,0,0,0,.07453-1.19261,3.83478,3.83478,0,0,0,.70812.26088,6.69318,6.69318,0,0,1-.11181.969,1.13155,1.13155,0,0,0-.03727.18635,1.00165,1.00165,0,0,1-.969.81992h-.5963a1.00525,1.00525,0,0,1-1.11808-1.15534v-2.907q-.4845,0-.93173.03727.07454,3.31773-2.4225,4.32323-.37269-.52256-.44723-.59631a3.44469,3.44469,0,0,0,1.71438-1.26716,4.79052,4.79052,0,0,0,.44723-2.4225,2.96023,2.96023,0,0,1-.4845.03727,1.61432,1.61432,0,0,0-.26088.03727c-.19981.02485-.36027.05021-.4845.07454l-.29816-.70811a1.47353,1.47353,0,0,0,.63358-.41,16.54621,16.54621,0,0,0,1.26715-1.75166H142.1328Z"/><path class="cls-3" d="M46.77912,7.92609a19.136,19.136,0,0,0-3.2945-2.42871A37.11652,37.11652,0,0,0,36.184,2.2262,44.22556,44.22556,0,0,0,24.01326.36326S16.28361.38021,10.48236,2.562a35.26346,35.26346,0,0,0-5.063,2.2884C1.8391,6.88.90236,8.069.90236,8.069a48.899,48.899,0,0,0,1.181,10.798A55.14272,55.14272,0,0,0,6.32856,31.01118a54.688,54.688,0,0,0,7.214,10.54771,43.04576,43.04576,0,0,0,10.29413,8.07794A42.29829,42.29829,0,0,0,34.153,41.61709a47.09968,47.09968,0,0,0,7.08073-10.54584,55.15854,55.15854,0,0,0,4.28842-12.0277A41.71508,41.71508,0,0,0,46.77912,7.92609ZM14.06529,5.89065A40.83441,40.83441,0,0,1,24.0008,4.52816a40.469,40.469,0,0,1,9.98414,1.45269A36.44415,36.44415,0,0,1,41.15539,8.864a61.92362,61.92362,0,0,0-12.56973.64266A59.792,59.792,0,0,0,6.40733,18.29237a69.75314,69.75314,0,0,1-1.46268-8.6109A31.71734,31.71734,0,0,1,14.06529,5.89065ZM8.53906,25.14694A72.54172,72.54172,0,0,1,18.186,18.044a58.86222,58.86222,0,0,1,14.22818-6.39439,51.14136,51.14136,0,0,1,8.1078-1.67928c.69543-.08541,1.39232-.15112,2.08966-.2066l-.01151.12666A52.09644,52.09644,0,0,0,29.887,16.13953a59.16861,59.16861,0,0,0-16.6573,17.74374C12.074,32.198,11.348,30.91043,11.348,30.91043A48.27927,48.27927,0,0,1,8.53906,25.14694Zm31.4657-2.84127a54.07,54.07,0,0,1-3.83727,8.55918,41.92747,41.92747,0,0,1-5.65933,7.81706,37.63255,37.63255,0,0,1-6.72269,5.48048,37.81322,37.81322,0,0,1-5.78414-4.592,71.40806,71.40806,0,0,1,6.078-11.10494A57.80513,57.80513,0,0,1,34.31846,16.82312a50.42876,50.42876,0,0,1,6.6643-4.84775c.48718-.29612.985-.57276,1.48174-.85153A60.12887,60.12887,0,0,1,40.00476,22.30567Z"/></svg>