<?xml version="1.0" standalone="no"?><!DOCTYPE svg PUBLIC "-//W3C//DTD SVG 1.1//EN" "http://www.w3.org/Graphics/SVG/1.1/DTD/svg11.dtd"><svg t="1596276956193" class="icon" viewBox="0 0 1024 1024" version="1.1" xmlns="http://www.w3.org/2000/svg" p-id="4415" xmlns:xlink="http://www.w3.org/1999/xlink" width="200" height="200"><defs><style type="text/css"></style></defs><path d="M594.318 432.588h-376.299c-26.927 0-48.792 17.007-48.792 37.969v303.982c0 20.955 21.859 37.995 48.792 37.995h244.009v43.822h-95.633c-13.466 0-24.396 8.451-24.396 18.945v19.024h337.672v-19.024c0-10.415-10.962-18.945-24.436-18.945h-95.628v-43.822h244.002c26.948 0 48.786-17.040 48.786-37.995h0.026v-304.008c0.007-20.962-21.839-37.962-48.766-37.962l-209.336 0.021zM810.2 769.508h-598.773v-298.951h598.773v298.951z" fill="#1296db" p-id="4416"></path><path d="M254.775 721.843v-188.743h83.682c16.822 0 29.61 1.695 38.364 5.082s15.747 9.373 20.989 17.963c5.234 8.583 7.852 18.062 7.852 28.45 0 13.388-4.338 24.673-13.005 33.862-8.669 9.183-22.063 15.016-40.17 17.508 6.605 3.171 11.628 6.308 15.062 9.4 7.291 6.697 14.206 15.062 20.732 25.108l32.827 51.369h-31.417l-24.977-39.268c-7.297-11.332-13.309-20-18.022-26.005-4.719-6.012-8.945-10.217-12.683-12.617-4.855-3.24-10.691-5.397-16.982-5.994 2.75 0.365-1.883 0.068-8.318 0.068h-28.971v83.814h-24.963zM279.751 616.401h53.691c11.41 0 20.342-1.187 26.782-3.54 6.441-2.36 11.332-6.143 14.68-11.331 3.148-4.737 5.023-10.556 5.023-16.814 0-0.040 0-0.080 0-0.12 0-8.918-3.243-16.262-9.724-22.011-6.48-5.754-16.717-8.628-30.705-8.628h-59.741v62.444zM444.803 721.843v-188.743h65.015c14.68 0 25.88 0.903 33.605 2.703 10.817 2.485 20.039 6.995 27.679 13.521 9.96 8.405 17.402 19.156 22.34 32.253 4.938 13.086 7.402 28.042 7.402 44.871 0 14.331-1.674 27.039-5.023 38.107s-7.64 20.23-12.874 27.488c-5.234 7.251-10.961 12.959-17.185 17.125-6.222 4.159-13.732 7.311-22.531 9.466-8.799 2.142-18.906 3.217-30.323 3.217h-68.107zM469.779 699.569h40.297c12.445 0 22.208-1.161 29.287-3.474s12.729-5.584 16.928-9.782c5.919-5.919 10.54-13.882 13.843-23.882 3.302-10.006 4.957-22.122 4.957-36.373 0-19.743-3.237-34.917-9.724-45.51-6.479-10.599-14.357-17.706-23.625-21.305-6.698-2.578-17.461-3.862-32.313-3.862h-39.656v144.189zM635.214 721.843v-188.743h71.198c12.531 0 22.102 0.6 28.707 1.799 9.268 1.542 17.040 4.482 23.302 8.82 6.263 4.331 11.312 10.402 15.128 18.219 3.817 7.812 5.728 16.388 5.728 25.748 0 16.052-5.102 29.63-15.32 40.75-10.217 11.114-28.668 16.671-55.357 16.671h-48.41v76.735h-24.977zM660.191 622.834h48.792c16.137 0 27.599-3.006 34.376-9.011 6.776-6.011 10.171-14.463 10.171-25.365 0-7.897-1.997-14.66-5.985-20.276-4.264-6.132-10.792-10.434-18.35-11.699-1.629-0.556-9.395-1.109-20.726-1.109h-48.278v67.461zM848.188 438.475s-213.081 42.715-288.365-20.428c-75.292-63.149-53.387-262.004-53.387-262.004l341.752 282.432zM742.679 231.532c-6.935-6.926-16.511-11.21-27.086-11.21-1.186 0-2.358 0.053-3.517 0.159l-2.006 43.654 43.672-2.155c0.541-10.916-3.085-22.471-11.061-30.447zM776.159 198.046c-16.368-16.361-39.016-24.040-61.68-22.919l-1.081 21.839c16.796-0.831 34.1 5.010 46.459 17.382 12.373 12.373 18.219 29.669 17.396 46.472l21.825-1.088c1.114-22.676-6.559-45.325-22.919-61.686z" fill="#1296db" p-id="4417"></path><path d="M809.639 164.56c-24.745-24.739-58.503-36.466-92.924-34.765l-1.127 22.662c28.55-1.411 56.552 8.094 77.308 28.846 20.751 20.751 30.256 48.753 28.846 77.308l22.67-1.128c1.707-34.422-10.027-68.179-34.772-92.925z" fill="#1296db" p-id="4418"></path><path d="M647.435 305.545c0 0 0 0 0 0 0 12.789 10.369 23.156 23.156 23.156 12.789 0 23.156-10.369 23.156-23.156 0 0 0 0 0 0 0 0 0 0 0 0 0-12.789-10.369-23.156-23.156-23.156-12.789 0-23.156 10.369-23.156 23.156s0 0 0 0z" fill="#1296db" p-id="4419"></path><path d="M682.292 273.904c0 8.876 7.194 16.071 16.071 16.071s16.071-7.194 16.071-16.071c0-8.876-7.194-16.071-16.071-16.071-8.876 0-16.071 7.194-16.071 16.071z" fill="#1296db" p-id="4420"></path></svg>